999
"DXF R12 Output" (www.mydxf.blogspot.com)
 0 
SECTION
 2 
HEADER
 9 
$ACADVER
 1 
AC1009
 9 
$EXTMIN
 10 
 0 
 20 
 0 
 9 
$EXTMAX
 10 
 8.5 
 20 
 11 
 0 
ENDSEC
 0 
SECTION
 2 
ENTITIES
0
POLYLINE
8
Layer 1
62
7
70
0
10
0.000000
20
0.000000
66
1
0
VERTEX
8
Layer 1
10
144.782463
20
336.055344
70
0
0
VERTEX
8
Layer 1
10
143.079639
20
334.962070
70
0
0
VERTEX
8
Layer 1
10
141.150312
20
333.515156
70
0
0
VERTEX
8
Layer 1
10
136.797803
20
329.764842
70
0
0
VERTEX
8
Layer 1
10
132.096231
20
325.213275
70
0
0
VERTEX
8
Layer 1
10
127.416889
20
320.269330
70
0
0
VERTEX
8
Layer 1
10
123.131073
20
315.341880
70
0
0
VERTEX
8
Layer 1
10
119.610078
20
310.839799
70
0
0
VERTEX
8
Layer 1
10
117.225198
20
307.171960
70
0
0
VERTEX
8
Layer 1
10
116.574831
20
305.778655
70
0
0
VERTEX
8
Layer 1
10
116.347728
20
304.747237
70
0
0
VERTEX
8
Layer 1
10
116.497466
20
303.423253
70
0
0
VERTEX
8
Layer 1
10
116.918070
20
302.528420
70
0
0
VERTEX
8
Layer 1
10
117.566629
20
302.055824
70
0
0
VERTEX
8
Layer 1
10
118.400231
20
301.998551
70
0
0
VERTEX
8
Layer 1
10
119.375964
20
302.349687
70
0
0
VERTEX
8
Layer 1
10
120.450915
20
303.102317
70
0
0
VERTEX
8
Layer 1
10
121.582172
20
304.249527
70
0
0
VERTEX
8
Layer 1
10
122.726825
20
305.784403
70
0
0
VERTEX
8
Layer 1
10
124.974488
20
308.939602
70
0
0
VERTEX
8
Layer 1
10
127.730337
20
312.402657
70
0
0
VERTEX
8
Layer 1
10
130.841761
20
316.013114
70
0
0
VERTEX
8
Layer 1
10
134.156149
20
319.610518
70
0
0
VERTEX
8
Layer 1
10
137.520890
20
323.034413
70
0
0
VERTEX
8
Layer 1
10
140.783374
20
326.124345
70
0
0
VERTEX
8
Layer 1
10
143.790990
20
328.719858
70
0
0
VERTEX
8
Layer 1
10
146.391128
20
330.660497
70
0
0
VERTEX
8
Layer 1
10
148.750919
20
332.406042
70
0
0
VERTEX
8
Layer 1
10
149.489307
20
333.140389
70
0
0
VERTEX
8
Layer 1
10
149.948116
20
333.812011
70
0
0
VERTEX
8
Layer 1
10
150.138414
20
334.443077
70
0
0
VERTEX
8
Layer 1
10
150.071271
20
335.055758
70
0
0
VERTEX
8
Layer 1
10
149.757756
20
335.672220
70
0
0
VERTEX
8
Layer 1
10
149.208937
20
336.314635
70
0
0
VERTEX
8
Layer 1
10
148.363636
20
336.958357
70
0
0
VERTEX
8
Layer 1
10
147.459051
20
337.136496
70
0
0
VERTEX
8
Layer 1
10
146.322791
20
336.838882
70
0
0
VERTEX
8
Layer 1
10
144.782463
20
336.055344
70
0
0
SEQEND
8
Layer 1
0
POLYLINE
8
Layer 1
62
7
70
0
10
0.000000
20
0.000000
66
1
0
VERTEX
8
Layer 1
10
704.751216
20
334.647762
70
0
0
VERTEX
8
Layer 1
10
703.564505
20
333.884549
70
0
0
VERTEX
8
Layer 1
10
702.764405
20
333.019791
70
0
0
VERTEX
8
Layer 1
10
702.341645
20
332.116153
70
0
0
VERTEX
8
Layer 1
10
702.286956
20
331.236295
70
0
0
VERTEX
8
Layer 1
10
702.591067
20
330.442882
70
0
0
VERTEX
8
Layer 1
10
703.244705
20
329.798576
70
0
0
VERTEX
8
Layer 1
10
704.238602
20
329.366040
70
0
0
VERTEX
8
Layer 1
10
705.563486
20
329.207936
70
0
0
VERTEX
8
Layer 1
10
707.408663
20
328.941038
70
0
0
VERTEX
8
Layer 1
10
709.305682
20
328.146297
70
0
0
VERTEX
8
Layer 1
10
711.237923
20
326.832642
70
0
0
VERTEX
8
Layer 1
10
713.188768
20
325.009004
70
0
0
VERTEX
8
Layer 1
10
714.744516
20
323.360652
70
0
0
VERTEX
8
Layer 1
10
713.188768
20
322.043028
70
0
0
VERTEX
8
Layer 1
10
709.001618
20
319.071348
70
0
0
VERTEX
8
Layer 1
10
702.087196
20
314.537470
70
0
0
VERTEX
8
Layer 1
10
695.421317
20
310.351850
70
0
0
VERTEX
8
Layer 1
10
691.979795
20
308.424941
70
0
0
VERTEX
8
Layer 1
10
691.109327
20
308.110857
70
0
0
VERTEX
8
Layer 1
10
690.347566
20
307.561781
70
0
0
VERTEX
8
Layer 1
10
689.721610
20
306.840621
70
0
0
VERTEX
8
Layer 1
10
689.258559
20
306.010291
70
0
0
VERTEX
8
Layer 1
10
688.985511
20
305.133699
70
0
0
VERTEX
8
Layer 1
10
688.929566
20
304.273758
70
0
0
VERTEX
8
Layer 1
10
689.117823
20
303.493378
70
0
0
VERTEX
8
Layer 1
10
689.577381
20
302.855469
70
0
0
VERTEX
8
Layer 1
10
690.179525
20
302.409931
70
0
0
VERTEX
8
Layer 1
10
690.831587
20
302.175449
70
0
0
VERTEX
8
Layer 1
10
691.599860
20
302.177046
70
0
0
VERTEX
8
Layer 1
10
692.550633
20
302.439743
70
0
0
VERTEX
8
Layer 1
10
695.264841
20
303.848523
70
0
0
VERTEX
8
Layer 1
10
699.504535
20
306.601964
70
0
0
VERTEX
8
Layer 1
10
704.045731
20
309.614779
70
0
0
VERTEX
8
Layer 1
10
705.300686
20
310.310896
70
0
0
VERTEX
8
Layer 1
10
705.947462
20
310.434118
70
0
0
VERTEX
8
Layer 1
10
706.058935
20
310.273230
70
0
0
VERTEX
8
Layer 1
10
706.037746
20
309.959921
70
0
0
VERTEX
8
Layer 1
10
705.623224
20
308.863777
70
0
0
VERTEX
8
Layer 1
10
703.486510
20
304.707550
70
0
0
VERTEX
8
Layer 1
10
701.498303
20
300.763770
70
0
0
VERTEX
8
Layer 1
10
700.005507
20
297.403860
70
0
0
VERTEX
8
Layer 1
10
699.003719
20
294.595296
70
0
0
VERTEX
8
Layer 1
10
698.488537
20
292.305553
70
0
0
VERTEX
8
Layer 1
10
698.455557
20
290.502104
70
0
0
VERTEX
8
Layer 1
10
698.900377
20
289.152426
70
0
0
VERTEX
8
Layer 1
10
699.300586
20
288.637587
70
0
0
VERTEX
8
Layer 1
10
699.818593
20
288.223993
70
0
0
VERTEX
8
Layer 1
10
701.205804
20
287.684280
70
0
0
VERTEX
8
Layer 1
10
701.896505
20
287.636262
70
0
0
VERTEX
8
Layer 1
10
702.707106
20
287.769442
70
0
0
VERTEX
8
Layer 1
10
704.703261
20
288.587831
70
0
0
VERTEX
8
Layer 1
10
707.224778
20
290.156312
70
0
0
VERTEX
8
Layer 1
10
710.302168
20
292.491753
70
0
0
VERTEX
8
Layer 1
10
712.868953
20
294.468188
70
0
0
VERTEX
8
Layer 1
10
714.048663
20
295.182562
70
0
0
VERTEX
8
Layer 1
10
713.778938
20
294.469671
70
0
0
VERTEX
8
Layer 1
10
712.697512
20
292.813676
70
0
0
VERTEX
8
Layer 1
10
708.692511
20
287.437225
70
0
0
VERTEX
8
Layer 1
10
703.219570
20
280.582913
70
0
0
VERTEX
8
Layer 1
10
697.464600
20
273.780443
70
0
0
VERTEX
8
Layer 1
10
693.442939
20
269.200511
70
0
0
VERTEX
8
Layer 1
10
685.132387
20
265.009517
70
0
0
VERTEX
8
Layer 1
10
679.014236
20
262.051148
70
0
0
VERTEX
8
Layer 1
10
675.977815
20
260.821168
70
0
0
VERTEX
8
Layer 1
10
675.358164
20
260.688913
70
0
0
VERTEX
8
Layer 1
10
674.682268
20
260.326687
70
0
0
VERTEX
8
Layer 1
10
673.342568
20
259.119568
70
0
0
VERTEX
8
Layer 1
10
672.320368
20
257.614298
70
0
0
VERTEX
8
Layer 1
10
672.041347
20
256.879382
70
0
0
VERTEX
8
Layer 1
10
671.977320
20
256.225361
70
0
0
VERTEX
8
Layer 1
10
672.188713
20
255.185829
70
0
0
VERTEX
8
Layer 1
10
672.611782
20
254.463982
70
0
0
VERTEX
8
Layer 1
10
673.278123
20
254.062240
70
0
0
VERTEX
8
Layer 1
10
674.219330
20
253.983020
70
0
0
VERTEX
8
Layer 1
10
675.466999
20
254.228741
70
0
0
VERTEX
8
Layer 1
10
677.052725
20
254.801822
70
0
0
VERTEX
8
Layer 1
10
681.364725
20
256.939735
70
0
0
VERTEX
8
Layer 1
10
694.941760
20
263.966812
70
0
0
VERTEX
8
Layer 1
10
713.205635
20
272.972804
70
0
0
VERTEX
8
Layer 1
10
731.387655
20
281.644429
70
0
0
VERTEX
8
Layer 1
10
744.719124
20
287.668405
70
0
0
VERTEX
8
Layer 1
10
749.077798
20
289.659185
70
0
0
VERTEX
8
Layer 1
10
750.525832
20
290.481485
70
0
0
VERTEX
8
Layer 1
10
751.523538
20
291.222085
70
0
0
VERTEX
8
Layer 1
10
752.098820
20
291.906255
70
0
0
VERTEX
8
Layer 1
10
752.279583
20
292.559263
70
0
0
VERTEX
8
Layer 1
10
752.093735
20
293.206380
70
0
0
VERTEX
8
Layer 1
10
751.569178
20
293.872876
70
0
0
VERTEX
8
Layer 1
10
751.143324
20
294.216173
70
0
0
VERTEX
8
Layer 1
10
750.648264
20
294.429989
70
0
0
VERTEX
8
Layer 1
10
749.287811
20
294.442391
70
0
0
VERTEX
8
Layer 1
10
747.162383
20
293.856505
70
0
0
VERTEX
8
Layer 1
10
743.946542
20
292.618753
70
0
0
VERTEX
8
Layer 1
10
734.168216
20
288.470091
70
0
0
VERTEX
8
Layer 1
10
720.067926
20
281.940183
70
0
0
VERTEX
8
Layer 1
10
711.009472
20
277.700199
70
0
0
VERTEX
8
Layer 1
10
706.905253
20
275.984089
70
0
0
VERTEX
8
Layer 1
10
706.294650
20
275.956447
70
0
0
VERTEX
8
Layer 1
10
706.423009
20
276.420527
70
0
0
VERTEX
8
Layer 1
10
708.230483
20
278.638187
70
0
0
VERTEX
8
Layer 1
10
711.511643
20
282.668034
70
0
0
VERTEX
8
Layer 1
10
714.574522
20
286.667620
70
0
0
VERTEX
8
Layer 1
10
717.249456
20
290.408244
70
0
0
VERTEX
8
Layer 1
10
719.366781
20
293.661210
70
0
0
VERTEX
8
Layer 1
10
720.692425
20
295.933523
70
0
0
VERTEX
8
Layer 1
10
721.595893
20
297.756624
70
0
0
VERTEX
8
Layer 1
10
722.223533
20
299.468104
70
0
0
VERTEX
8
Layer 1
10
722.721694
20
301.405554
70
0
0
VERTEX
8
Layer 1
10
723.040516
20
302.122698
70
0
0
VERTEX
8
Layer 1
10
723.698666
20
303.122367
70
0
0
VERTEX
8
Layer 1
10
725.647982
20
305.440445
70
0
0
VERTEX
8
Layer 1
10
727.889578
20
307.911816
70
0
0
VERTEX
8
Layer 1
10
728.364185
20
308.613085
70
0
0
VERTEX
8
Layer 1
10
728.392369
20
308.973289
70
0
0
VERTEX
8
Layer 1
10
727.962411
20
309.003841
70
0
0
VERTEX
8
Layer 1
10
727.062591
20
308.716148
70
0
0
VERTEX
8
Layer 1
10
723.806484
20
307.231672
70
0
0
VERTEX
8
Layer 1
10
722.029029
20
306.392603
70
0
0
VERTEX
8
Layer 1
10
720.675020
20
305.897760
70
0
0
VERTEX
8
Layer 1
10
719.669579
20
305.839852
70
0
0
VERTEX
8
Layer 1
10
719.274171
20
306.003719
70
0
0
VERTEX
8
Layer 1
10
718.937826
20
306.311584
70
0
0
VERTEX
8
Layer 1
10
718.404882
20
307.405666
70
0
0
VERTEX
8
Layer 1
10
717.995869
20
309.214804
70
0
0
VERTEX
8
Layer 1
10
717.250117
20
315.349078
70
0
0
VERTEX
8
Layer 1
10
716.906159
20
318.587574
70
0
0
VERTEX
8
Layer 1
10
719.710739
20
321.048196
70
0
0
VERTEX
8
Layer 1
10
720.959323
20
322.305177
70
0
0
VERTEX
8
Layer 1
10
721.846255
20
323.524238
70
0
0
VERTEX
8
Layer 1
10
722.372527
20
324.642902
70
0
0
VERTEX
8
Layer 1
10
722.539131
20
325.598693
70
0
0
VERTEX
8
Layer 1
10
722.347061
20
326.329133
70
0
0
VERTEX
8
Layer 1
10
721.797307
20
326.771747
70
0
0
VERTEX
8
Layer 1
10
720.890862
20
326.864056
70
0
0
VERTEX
8
Layer 1
10
719.628718
20
326.543585
70
0
0
VERTEX
8
Layer 1
10
718.763863
20
326.225383
70
0
0
VERTEX
8
Layer 1
10
718.313741
20
326.176807
70
0
0
VERTEX
8
Layer 1
10
718.089838
20
326.465078
70
0
0
VERTEX
8
Layer 1
10
717.903637
20
327.157418
70
0
0
VERTEX
8
Layer 1
10
717.370549
20
328.166853
70
0
0
VERTEX
8
Layer 1
10
716.299975
20
329.410755
70
0
0
VERTEX
8
Layer 1
10
714.842014
20
330.775332
70
0
0
VERTEX
8
Layer 1
10
713.146766
20
332.146792
70
0
0
VERTEX
8
Layer 1
10
711.364329
20
333.411343
70
0
0
VERTEX
8
Layer 1
10
709.644803
20
334.455196
70
0
0
VERTEX
8
Layer 1
10
708.138287
20
335.164557
70
0
0
VERTEX
8
Layer 1
10
706.994880
20
335.425636
70
0
0
VERTEX
8
Layer 1
10
706.051642
20
335.196441
70
0
0
VERTEX
8
Layer 1
10
704.751216
20
334.647762
70
0
0
SEQEND
8
Layer 1
0
POLYLINE
8
Layer 1
62
7
70
0
10
0.000000
20
0.000000
66
1
0
VERTEX
8
Layer 1
10
182.218312
20
317.550409
70
0
0
VERTEX
8
Layer 1
10
181.034303
20
315.802838
70
0
0
VERTEX
8
Layer 1
10
179.445482
20
312.999581
70
0
0
VERTEX
8
Layer 1
10
176.377973
20
307.882546
70
0
0
VERTEX
8
Layer 1
10
171.637638
20
300.566826
70
0
0
VERTEX
8
Layer 1
10
167.781919
20
294.700277
70
0
0
VERTEX
8
Layer 1
10
165.862452
20
291.333541
70
0
0
VERTEX
8
Layer 1
10
165.492853
20
290.284831
70
0
0
VERTEX
8
Layer 1
10
165.444163
20
289.497748
70
0
0
VERTEX
8
Layer 1
10
165.662000
20
288.851184
70
0
0
VERTEX
8
Layer 1
10
166.091978
20
288.224029
70
0
0
VERTEX
8
Layer 1
10
166.707072
20
287.594751
70
0
0
VERTEX
8
Layer 1
10
167.418531
20
287.180373
70
0
0
VERTEX
8
Layer 1
10
168.260959
20
286.985455
70
0
0
VERTEX
8
Layer 1
10
169.268959
20
287.014554
70
0
0
VERTEX
8
Layer 1
10
170.477131
20
287.272228
70
0
0
VERTEX
8
Layer 1
10
171.920080
20
287.763035
70
0
0
VERTEX
8
Layer 1
10
175.648716
20
289.462278
70
0
0
VERTEX
8
Layer 1
10
180.855710
20
291.904379
70
0
0
VERTEX
8
Layer 1
10
180.928212
20
291.648565
70
0
0
VERTEX
8
Layer 1
10
180.666781
20
290.909588
70
0
0
VERTEX
8
Layer 1
10
179.245061
20
288.164829
70
0
0
VERTEX
8
Layer 1
10
176.796428
20
284.035474
70
0
0
VERTEX
8
Layer 1
10
173.526761
20
278.886895
70
0
0
VERTEX
8
Layer 1
10
170.715954
20
274.165758
70
0
0
VERTEX
8
Layer 1
10
169.744630
20
272.173970
70
0
0
VERTEX
8
Layer 1
10
169.058905
20
270.431939
70
0
0
VERTEX
8
Layer 1
10
168.655937
20
268.942589
70
0
0
VERTEX
8
Layer 1
10
168.532886
20
267.708847
70
0
0
VERTEX
8
Layer 1
10
168.686910
20
266.733640
70
0
0
VERTEX
8
Layer 1
10
169.115170
20
266.019893
70
0
0
VERTEX
8
Layer 1
10
169.814823
20
265.570533
70
0
0
VERTEX
8
Layer 1
10
170.783030
20
265.388485
70
0
0
VERTEX
8
Layer 1
10
172.016948
20
265.476677
70
0
0
VERTEX
8
Layer 1
10
173.513738
20
265.838034
70
0
0
VERTEX
8
Layer 1
10
175.270558
20
266.475482
70
0
0
VERTEX
8
Layer 1
10
177.284568
20
267.391947
70
0
0
VERTEX
8
Layer 1
10
182.072791
20
270.073635
70
0
0
VERTEX
8
Layer 1
10
184.159690
20
271.279142
70
0
0
VERTEX
8
Layer 1
10
185.123433
20
271.684946
70
0
0
VERTEX
8
Layer 1
10
185.049138
20
271.268982
70
0
0
VERTEX
8
Layer 1
10
184.565287
20
270.333671
70
0
0
VERTEX
8
Layer 1
10
182.493809
20
267.089801
70
0
0
VERTEX
8
Layer 1
10
179.158782
20
262.322924
70
0
0
VERTEX
8
Layer 1
10
174.809988
20
256.402632
70
0
0
VERTEX
8
Layer 1
10
174.214645
20
255.390793
70
0
0
VERTEX
8
Layer 1
10
173.954476
20
254.454019
70
0
0
VERTEX
8
Layer 1
10
173.993574
20
253.638850
70
0
0
VERTEX
8
Layer 1
10
174.296036
20
252.991826
70
0
0
VERTEX
8
Layer 1
10
174.825956
20
252.559486
70
0
0
VERTEX
8
Layer 1
10
175.547431
20
252.388370
70
0
0
VERTEX
8
Layer 1
10
176.424554
20
252.525018
70
0
0
VERTEX
8
Layer 1
10
177.421422
20
253.015969
70
0
0
VERTEX
8
Layer 1
10
178.933023
20
254.377177
70
0
0
VERTEX
8
Layer 1
10
181.052369
20
256.769823
70
0
0
VERTEX
8
Layer 1
10
186.206570
20
263.409451
70
0
0
VERTEX
8
Layer 1
10
191.068572
20
270.454883
70
0
0
VERTEX
8
Layer 1
10
192.822670
20
273.354785
70
0
0
VERTEX
8
Layer 1
10
193.822922
20
275.426149
70
0
0
VERTEX
8
Layer 1
10
194.389761
20
277.490910
70
0
0
VERTEX
8
Layer 1
10
194.451390
20
279.035392
70
0
0
VERTEX
8
Layer 1
10
194.293778
20
279.612336
70
0
0
VERTEX
8
Layer 1
10
194.011097
20
280.058977
70
0
0
VERTEX
8
Layer 1
10
193.603757
20
280.375239
70
0
0
VERTEX
8
Layer 1
10
193.072168
20
280.561044
70
0
0
VERTEX
8
Layer 1
10
191.637891
20
280.540973
70
0
0
VERTEX
8
Layer 1
10
189.711551
20
279.998144
70
0
0
VERTEX
8
Layer 1
10
187.296435
20
278.931936
70
0
0
VERTEX
8
Layer 1
10
184.395830
20
277.341730
70
0
0
VERTEX
8
Layer 1
10
179.266558
20
274.345287
70
0
0
VERTEX
8
Layer 1
10
177.899491
20
273.683772
70
0
0
VERTEX
8
Layer 1
10
177.495599
20
273.582689
70
0
0
VERTEX
8
Layer 1
10
177.270610
20
273.642529
70
0
0
VERTEX
8
Layer 1
10
177.218882
20
273.869150
70
0
0
VERTEX
8
Layer 1
10
177.334771
20
274.268408
70
0
0
VERTEX
8
Layer 1
10
178.046830
20
275.608257
70
0
0
VERTEX
8
Layer 1
10
181.234063
20
280.617268
70
0
0
VERTEX
8
Layer 1
10
184.561417
20
286.123907
70
0
0
VERTEX
8
Layer 1
10
186.863191
20
290.668156
70
0
0
VERTEX
8
Layer 1
10
187.630057
20
292.574743
70
0
0
VERTEX
8
Layer 1
10
188.141214
20
294.235164
70
0
0
VERTEX
8
Layer 1
10
188.396892
20
295.647561
70
0
0
VERTEX
8
Layer 1
10
188.397317
20
296.810078
70
0
0
VERTEX
8
Layer 1
10
188.142720
20
297.720859
70
0
0
VERTEX
8
Layer 1
10
187.633329
20
298.378048
70
0
0
VERTEX
8
Layer 1
10
186.869372
20
298.779787
70
0
0
VERTEX
8
Layer 1
10
185.851078
20
298.924220
70
0
0
VERTEX
8
Layer 1
10
184.578676
20
298.809492
70
0
0
VERTEX
8
Layer 1
10
183.052395
20
298.433745
70
0
0
VERTEX
8
Layer 1
10
181.272462
20
297.795122
70
0
0
VERTEX
8
Layer 1
10
179.239108
20
296.891768
70
0
0
VERTEX
8
Layer 1
10
174.939634
20
295.015875
70
0
0
VERTEX
8
Layer 1
10
175.099458
20
295.487287
70
0
0
VERTEX
8
Layer 1
10
175.819372
20
296.771052
70
0
0
VERTEX
8
Layer 1
10
178.477108
20
300.992805
70
0
0
VERTEX
8
Layer 1
10
181.797377
20
306.242338
70
0
0
VERTEX
8
Layer 1
10
184.169612
20
310.425519
70
0
0
VERTEX
8
Layer 1
10
185.593316
20
313.541604
70
0
0
VERTEX
8
Layer 1
10
185.949315
20
314.699253
70
0
0
VERTEX
8
Layer 1
10
186.067995
20
315.589849
70
0
0
VERTEX
8
Layer 1
10
185.972466
20
316.545836
70
0
0
VERTEX
8
Layer 1
10
185.706095
20
317.329771
70
0
0
VERTEX
8
Layer 1
10
185.299205
20
317.926122
70
0
0
VERTEX
8
Layer 1
10
184.782121
20
318.319353
70
0
0
VERTEX
8
Layer 1
10
184.185166
20
318.493931
70
0
0
VERTEX
8
Layer 1
10
183.538664
20
318.434323
70
0
0
VERTEX
8
Layer 1
10
182.872938
20
318.124993
70
0
0
VERTEX
8
Layer 1
10
182.218312
20
317.550409
70
0
0
SEQEND
8
Layer 1
0
POLYLINE
8
Layer 1
62
7
70
0
10
0.000000
20
0.000000
66
1
0
VERTEX
8
Layer 1
10
515.145747
20
312.131749
70
0
0
VERTEX
8
Layer 1
10
513.150414
20
311.404042
70
0
0
VERTEX
8
Layer 1
10
511.795258
20
310.451482
70
0
0
VERTEX
8
Layer 1
10
511.061397
20
309.390524
70
0
0
VERTEX
8
Layer 1
10
510.929947
20
308.337629
70
0
0
VERTEX
8
Layer 1
10
511.084227
20
307.850597
70
0
0
VERTEX
8
Layer 1
10
511.382028
20
307.409253
70
0
0
VERTEX
8
Layer 1
10
512.398755
20
306.721854
70
0
0
VERTEX
8
Layer 1
10
513.961247
20
306.391890
70
0
0
VERTEX
8
Layer 1
10
516.050621
20
306.535819
70
0
0
VERTEX
8
Layer 1
10
517.757759
20
306.762825
70
0
0
VERTEX
8
Layer 1
10
519.429418
20
306.833206
70
0
0
VERTEX
8
Layer 1
10
522.625095
20
306.531188
70
0
0
VERTEX
8
Layer 1
10
525.555238
20
305.683965
70
0
0
VERTEX
8
Layer 1
10
528.137434
20
304.345733
70
0
0
VERTEX
8
Layer 1
10
529.272297
20
303.509426
70
0
0
VERTEX
8
Layer 1
10
530.289269
20
302.570691
70
0
0
VERTEX
8
Layer 1
10
531.178046
20
301.536303
70
0
0
VERTEX
8
Layer 1
10
531.928329
20
300.413037
70
0
0
VERTEX
8
Layer 1
10
532.529815
20
299.207668
70
0
0
VERTEX
8
Layer 1
10
532.972202
20
297.926970
70
0
0
VERTEX
8
Layer 1
10
533.245189
20
296.577718
70
0
0
VERTEX
8
Layer 1
10
533.338474
20
295.166687
70
0
0
VERTEX
8
Layer 1
10
533.176518
20
293.321432
70
0
0
VERTEX
8
Layer 1
10
532.709826
20
291.186609
70
0
0
VERTEX
8
Layer 1
10
531.967158
20
288.809438
70
0
0
VERTEX
8
Layer 1
10
530.977277
20
286.237135
70
0
0
VERTEX
8
Layer 1
10
528.370923
20
280.696007
70
0
0
VERTEX
8
Layer 1
10
525.120857
20
274.940970
70
0
0
VERTEX
8
Layer 1
10
521.457173
20
269.349768
70
0
0
VERTEX
8
Layer 1
10
517.609965
20
264.300145
70
0
0
VERTEX
8
Layer 1
10
515.689445
20
262.096470
70
0
0
VERTEX
8
Layer 1
10
513.809329
20
260.169844
70
0
0
VERTEX
8
Layer 1
10
511.998379
20
258.567485
70
0
0
VERTEX
8
Layer 1
10
510.285357
20
257.336610
70
0
0
VERTEX
8
Layer 1
10
504.056040
20
253.684041
70
0
0
VERTEX
8
Layer 1
10
502.051684
20
252.761639
70
0
0
VERTEX
8
Layer 1
10
500.721674
20
252.440501
70
0
0
VERTEX
8
Layer 1
10
500.294113
20
252.505097
70
0
0
VERTEX
8
Layer 1
10
500.016617
20
252.719636
70
0
0
VERTEX
8
Layer 1
10
499.883011
20
253.083996
70
0
0
VERTEX
8
Layer 1
10
499.887121
20
253.598052
70
0
0
VERTEX
8
Layer 1
10
500.283794
20
255.074756
70
0
0
VERTEX
8
Layer 1
10
501.157244
20
257.148756
70
0
0
VERTEX
8
Layer 1
10
502.303922
20
259.126968
70
0
0
VERTEX
8
Layer 1
10
504.502565
20
261.480972
70
0
0
VERTEX
8
Layer 1
10
508.849788
20
265.233461
70
0
0
VERTEX
8
Layer 1
10
516.442204
20
271.407134
70
0
0
VERTEX
8
Layer 1
10
522.256622
20
276.188810
70
0
0
VERTEX
8
Layer 1
10
524.036661
20
277.798363
70
0
0
VERTEX
8
Layer 1
10
525.173112
20
279.023817
70
0
0
VERTEX
8
Layer 1
10
525.746869
20
279.967737
70
0
0
VERTEX
8
Layer 1
10
525.838827
20
280.732692
70
0
0
VERTEX
8
Layer 1
10
525.529880
20
281.421249
70
0
0
VERTEX
8
Layer 1
10
524.900922
20
282.135974
70
0
0
VERTEX
8
Layer 1
10
524.211823
20
282.641131
70
0
0
VERTEX
8
Layer 1
10
523.346456
20
282.927822
70
0
0
VERTEX
8
Layer 1
10
522.271179
20
282.989410
70
0
0
VERTEX
8
Layer 1
10
520.952351
20
282.819260
70
0
0
VERTEX
8
Layer 1
10
517.449479
20
281.757207
70
0
0
VERTEX
8
Layer 1
10
512.568708
20
279.688582
70
0
0
VERTEX
8
Layer 1
10
510.044669
20
278.571008
70
0
0
VERTEX
8
Layer 1
10
509.324538
20
278.356060
70
0
0
VERTEX
8
Layer 1
10
508.914156
20
278.407669
70
0
0
VERTEX
8
Layer 1
10
508.774888
20
278.753834
70
0
0
VERTEX
8
Layer 1
10
508.868102
20
279.422552
70
0
0
VERTEX
8
Layer 1
10
509.597441
20
281.839641
70
0
0
VERTEX
8
Layer 1
10
510.480611
20
285.301090
70
0
0
VERTEX
8
Layer 1
10
510.637609
20
286.651388
70
0
0
VERTEX
8
Layer 1
10
510.604510
20
287.750756
70
0
0
VERTEX
8
Layer 1
10
510.381036
20
288.601210
70
0
0
VERTEX
8
Layer 1
10
509.966907
20
289.204764
70
0
0
VERTEX
8
Layer 1
10
509.361844
20
289.563434
70
0
0
VERTEX
8
Layer 1
10
508.565568
20
289.679236
70
0
0
VERTEX
8
Layer 1
10
507.899413
20
289.644215
70
0
0
VERTEX
8
Layer 1
10
507.347948
20
289.495805
70
0
0
VERTEX
8
Layer 1
10
506.864139
20
289.157082
70
0
0
VERTEX
8
Layer 1
10
506.400948
20
288.551120
70
0
0
VERTEX
8
Layer 1
10
505.348280
20
286.229776
70
0
0
VERTEX
8
Layer 1
10
503.813657
20
281.916370
70
0
0
VERTEX
8
Layer 1
10
502.536713
20
278.336810
70
0
0
VERTEX
8
Layer 1
10
501.551472
20
275.933487
70
0
0
VERTEX
8
Layer 1
10
500.697200
20
274.356655
70
0
0
VERTEX
8
Layer 1
10
499.813162
20
273.256569
70
0
0
VERTEX
8
Layer 1
10
498.973359
20
272.346734
70
0
0
VERTEX
8
Layer 1
10
498.561684
20
271.688915
70
0
0
VERTEX
8
Layer 1
10
498.501244
20
271.074751
70
0
0
VERTEX
8
Layer 1
10
498.715143
20
270.295885
70
0
0
VERTEX
8
Layer 1
10
498.897085
20
269.421480
70
0
0
VERTEX
8
Layer 1
10
498.781619
20
268.327057
70
0
0
VERTEX
8
Layer 1
10
497.357832
20
264.101997
70
0
0
VERTEX
8
Layer 1
10
490.731082
20
246.349046
70
0
0
VERTEX
8
Layer 1
10
485.641600
20
232.130201
70
0
0
VERTEX
8
Layer 1
10
481.990045
20
221.016030
70
0
0
VERTEX
8
Layer 1
10
479.677073
20
212.577104
70
0
0
VERTEX
8
Layer 1
10
478.991511
20
209.226660
70
0
0
VERTEX
8
Layer 1
10
478.603341
20
206.383991
70
0
0
VERTEX
8
Layer 1
10
478.500146
20
203.995417
70
0
0
VERTEX
8
Layer 1
10
478.669508
20
202.007261
70
0
0
VERTEX
8
Layer 1
10
479.099008
20
200.365842
70
0
0
VERTEX
8
Layer 1
10
479.776229
20
199.017483
70
0
0
VERTEX
8
Layer 1
10
480.688754
20
197.908505
70
0
0
VERTEX
8
Layer 1
10
481.824164
20
196.985227
70
0
0
VERTEX
8
Layer 1
10
482.804043
20
196.412025
70
0
0
VERTEX
8
Layer 1
10
483.823807
20
196.018239
70
0
0
VERTEX
8
Layer 1
10
484.901327
20
195.814672
70
0
0
VERTEX
8
Layer 1
10
486.054474
20
195.812133
70
0
0
VERTEX
8
Layer 1
10
487.301119
20
196.021424
70
0
0
VERTEX
8
Layer 1
10
488.659133
20
196.453354
70
0
0
VERTEX
8
Layer 1
10
490.146388
20
197.118726
70
0
0
VERTEX
8
Layer 1
10
491.780753
20
198.028346
70
0
0
VERTEX
8
Layer 1
10
495.562300
20
200.623554
70
0
0
VERTEX
8
Layer 1
10
500.146743
20
204.325421
70
0
0
VERTEX
8
Layer 1
10
505.677050
20
209.220393
70
0
0
VERTEX
8
Layer 1
10
512.296188
20
215.394913
70
0
0
VERTEX
8
Layer 1
10
517.028834
20
219.866241
70
0
0
VERTEX
8
Layer 1
10
518.529381
20
221.075814
70
0
0
VERTEX
8
Layer 1
10
519.711126
20
221.675782
70
0
0
VERTEX
8
Layer 1
10
520.767857
20
221.721986
70
0
0
VERTEX
8
Layer 1
10
521.893357
20
221.270267
70
0
0
VERTEX
8
Layer 1
10
525.125818
20
219.096429
70
0
0
VERTEX
8
Layer 1
10
530.547325
20
215.559114
70
0
0
VERTEX
8
Layer 1
10
536.455220
20
211.987538
70
0
0
VERTEX
8
Layer 1
10
542.768858
20
208.423094
70
0
0
VERTEX
8
Layer 1
10
549.407592
20
204.907173
70
0
0
VERTEX
8
Layer 1
10
556.290775
20
201.481170
70
0
0
VERTEX
8
Layer 1
10
563.337763
20
198.186476
70
0
0
VERTEX
8
Layer 1
10
570.467908
20
195.064484
70
0
0
VERTEX
8
Layer 1
10
577.600564
20
192.156588
70
0
0
VERTEX
8
Layer 1
10
580.979620
20
190.929749
70
0
0
VERTEX
8
Layer 1
10
583.332755
20
190.336918
70
0
0
VERTEX
8
Layer 1
10
584.902063
20
190.342375
70
0
0
VERTEX
8
Layer 1
10
585.468436
20
190.558300
70
0
0
VERTEX
8
Layer 1
10
585.929637
20
190.910402
70
0
0
VERTEX
8
Layer 1
10
586.509192
20
191.643886
70
0
0
VERTEX
8
Layer 1
10
586.705981
20
192.354115
70
0
0
VERTEX
8
Layer 1
10
586.478300
20
193.076871
70
0
0
VERTEX
8
Layer 1
10
585.784447
20
193.847935
70
0
0
VERTEX
8
Layer 1
10
584.582718
20
194.703085
70
0
0
VERTEX
8
Layer 1
10
582.831411
20
195.678105
70
0
0
VERTEX
8
Layer 1
10
577.513252
20
198.130872
70
0
0
VERTEX
8
Layer 1
10
563.164006
20
204.557428
70
0
0
VERTEX
8
Layer 1
10
556.968578
20
207.531588
70
0
0
VERTEX
8
Layer 1
10
551.222300
20
210.453164
70
0
0
VERTEX
8
Layer 1
10
545.772438
20
213.402272
70
0
0
VERTEX
8
Layer 1
10
540.466257
20
216.459032
70
0
0
VERTEX
8
Layer 1
10
529.673999
20
223.215986
70
0
0
VERTEX
8
Layer 1
10
526.336161
20
225.449687
70
0
0
VERTEX
8
Layer 1
10
525.595323
20
226.316305
70
0
0
VERTEX
8
Layer 1
10
525.480650
20
226.765285
70
0
0
VERTEX
8
Layer 1
10
525.545512
20
227.254515
70
0
0
VERTEX
8
Layer 1
10
526.240957
20
228.443128
70
0
0
VERTEX
8
Layer 1
10
527.735888
20
230.060955
70
0
0
VERTEX
8
Layer 1
10
533.341120
20
235.299492
70
0
0
VERTEX
8
Layer 1
10
538.942301
20
240.688262
70
0
0
VERTEX
8
Layer 1
10
540.677825
20
242.582898
70
0
0
VERTEX
8
Layer 1
10
541.773049
20
244.058181
70
0
0
VERTEX
8
Layer 1
10
542.280279
20
245.199469
70
0
0
VERTEX
8
Layer 1
10
542.251820
20
246.092122
70
0
0
VERTEX
8
Layer 1
10
541.739982
20
246.821497
70
0
0
VERTEX
8
Layer 1
10
540.797069
20
247.472955
70
0
0
VERTEX
8
Layer 1
10
539.974810
20
247.643115
70
0
0
VERTEX
8
Layer 1
10
538.736422
20
247.406975
70
0
0
VERTEX
8
Layer 1
10
537.004607
20
246.722119
70
0
0
VERTEX
8
Layer 1
10
534.702069
20
245.546130
70
0
0
VERTEX
8
Layer 1
10
528.075629
20
241.551092
70
0
0
VERTEX
8
Layer 1
10
518.238722
20
235.082534
70
0
0
VERTEX
8
Layer 1
10
516.362374
20
233.870330
70
0
0
VERTEX
8
Layer 1
10
515.027015
20
233.197380
70
0
0
VERTEX
8
Layer 1
10
513.821137
20
232.907413
70
0
0
VERTEX
8
Layer 1
10
512.333230
20
232.844161
70
0
0
VERTEX
8
Layer 1
10
510.348361
20
232.702527
70
0
0
VERTEX
8
Layer 1
10
508.725640
20
232.242897
70
0
0
VERTEX
8
Layer 1
10
507.343029
20
231.413181
70
0
0
VERTEX
8
Layer 1
10
506.078487
20
230.161290
70
0
0
VERTEX
8
Layer 1
10
505.401341
20
229.157926
70
0
0
VERTEX
8
Layer 1
10
505.059678
20
228.199117
70
0
0
VERTEX
8
Layer 1
10
505.031297
20
227.322722
70
0
0
VERTEX
8
Layer 1
10
505.293999
20
226.566599
70
0
0
VERTEX
8
Layer 1
10
505.825583
20
225.968605
70
0
0
VERTEX
8
Layer 1
10
506.603850
20
225.566599
70
0
0
VERTEX
8
Layer 1
10
507.606599
20
225.398439
70
0
0
VERTEX
8
Layer 1
10
508.811630
20
225.501983
70
0
0
VERTEX
8
Layer 1
10
511.682355
20
226.052316
70
0
0
VERTEX
8
Layer 1
10
512.941192
20
226.141530
70
0
0
VERTEX
8
Layer 1
10
514.059634
20
225.972279
70
0
0
VERTEX
8
Layer 1
10
514.830810
20
225.603600
70
0
0
VERTEX
8
Layer 1
10
515.021527
20
225.362922
70
0
0
VERTEX
8
Layer 1
10
515.047851
20
225.094525
70
0
0
VERTEX
8
Layer 1
10
513.963676
20
223.734843
70
0
0
VERTEX
8
Layer 1
10
511.310079
20
221.173281
70
0
0
VERTEX
8
Layer 1
10
503.161791
20
214.024703
70
0
0
VERTEX
8
Layer 1
10
494.337327
20
206.809153
70
0
0
VERTEX
8
Layer 1
10
490.838512
20
204.163876
70
0
0
VERTEX
8
Layer 1
10
488.571030
20
202.686991
70
0
0
VERTEX
8
Layer 1
10
487.455390
20
202.232180
70
0
0
VERTEX
8
Layer 1
10
486.523742
20
202.098237
70
0
0
VERTEX
8
Layer 1
10
485.776524
20
202.288405
70
0
0
VERTEX
8
Layer 1
10
485.214175
20
202.805929
70
0
0
VERTEX
8
Layer 1
10
484.837132
20
203.654053
70
0
0
VERTEX
8
Layer 1
10
484.645833
20
204.836020
70
0
0
VERTEX
8
Layer 1
10
484.640716
20
206.355075
70
0
0
VERTEX
8
Layer 1
10
484.822220
20
208.214461
70
0
0
VERTEX
8
Layer 1
10
485.746839
20
212.967203
70
0
0
VERTEX
8
Layer 1
10
487.423195
20
219.120200
70
0
0
VERTEX
8
Layer 1
10
489.854790
20
226.699402
70
0
0
VERTEX
8
Layer 1
10
493.045129
20
235.730762
70
0
0
VERTEX
8
Layer 1
10
496.778395
20
245.943666
70
0
0
VERTEX
8
Layer 1
10
498.738955
20
245.814020
70
0
0
VERTEX
8
Layer 1
10
499.895380
20
245.931450
70
0
0
VERTEX
8
Layer 1
10
501.407817
20
246.383623
70
0
0
VERTEX
8
Layer 1
10
505.255180
20
248.123540
70
0
0
VERTEX
8
Layer 1
10
509.789941
20
250.696460
70
0
0
VERTEX
8
Layer 1
10
514.521000
20
253.765070
70
0
0
VERTEX
8
Layer 1
10
518.957256
20
256.992058
70
0
0
VERTEX
8
Layer 1
10
522.607608
20
260.040111
70
0
0
VERTEX
8
Layer 1
10
523.984600
20
261.391626
70
0
0
VERTEX
8
Layer 1
10
524.980953
20
262.571917
70
0
0
VERTEX
8
Layer 1
10
525.535280
20
263.538817
70
0
0
VERTEX
8
Layer 1
10
525.586192
20
264.250164
70
0
0
VERTEX
8
Layer 1
10
525.199901
20
265.300558
70
0
0
VERTEX
8
Layer 1
10
526.012501
20
266.714093
70
0
0
VERTEX
8
Layer 1
10
528.073272
20
269.742907
70
0
0
VERTEX
8
Layer 1
10
531.966993
20
275.647288
70
0
0
VERTEX
8
Layer 1
10
535.023620
20
281.152594
70
0
0
VERTEX
8
Layer 1
10
536.237809
20
283.754673
70
0
0
VERTEX
8
Layer 1
10
537.242468
20
286.255878
70
0
0
VERTEX
8
Layer 1
10
538.037513
20
288.655841
70
0
0
VERTEX
8
Layer 1
10
538.622858
20
290.954195
70
0
0
VERTEX
8
Layer 1
10
538.998417
20
293.150570
70
0
0
VERTEX
8
Layer 1
10
539.164106
20
295.244600
70
0
0
VERTEX
8
Layer 1
10
539.119839
20
297.235914
70
0
0
VERTEX
8
Layer 1
10
538.865530
20
299.124146
70
0
0
VERTEX
8
Layer 1
10
538.401095
20
300.908927
70
0
0
VERTEX
8
Layer 1
10
537.726449
20
302.589889
70
0
0
VERTEX
8
Layer 1
10
536.841505
20
304.166663
70
0
0
VERTEX
8
Layer 1
10
535.746179
20
305.638882
70
0
0
VERTEX
8
Layer 1
10
533.913296
20
307.420771
70
0
0
VERTEX
8
Layer 1
10
531.657834
20
308.991852
70
0
0
VERTEX
8
Layer 1
10
529.085059
20
310.318916
70
0
0
VERTEX
8
Layer 1
10
526.300235
20
311.368758
70
0
0
VERTEX
8
Layer 1
10
523.408627
20
312.108169
70
0
0
VERTEX
8
Layer 1
10
520.515500
20
312.503943
70
0
0
VERTEX
8
Layer 1
10
517.726118
20
312.522872
70
0
0
VERTEX
8
Layer 1
10
515.145747
20
312.131749
70
0
0
SEQEND
8
Layer 1
0
POLYLINE
8
Layer 1
62
7
70
0
10
0.000000
20
0.000000
66
1
0
VERTEX
8
Layer 1
10
713.188768
20
309.337753
70
0
0
VERTEX
8
Layer 1
10
713.397789
20
307.365617
70
0
0
VERTEX
8
Layer 1
10
713.900496
20
304.887466
70
0
0
VERTEX
8
Layer 1
10
714.293320
20
303.245481
70
0
0
VERTEX
8
Layer 1
10
714.395928
20
302.324319
70
0
0
VERTEX
8
Layer 1
10
714.184014
20
301.803007
70
0
0
VERTEX
8
Layer 1
10
713.633268
20
301.360575
70
0
0
VERTEX
8
Layer 1
10
710.146064
20
298.590391
70
0
0
VERTEX
8
Layer 1
10
706.344006
20
295.661457
70
0
0
VERTEX
8
Layer 1
10
705.050195
20
294.817438
70
0
0
VERTEX
8
Layer 1
10
705.378278
20
296.137707
70
0
0
VERTEX
8
Layer 1
10
706.701730
20
299.353258
70
0
0
VERTEX
8
Layer 1
10
709.159500
20
304.473063
70
0
0
VERTEX
8
Layer 1
10
711.595937
20
309.177638
70
0
0
VERTEX
8
Layer 1
10
712.445016
20
310.649376
70
0
0
VERTEX
8
Layer 1
10
712.855394
20
311.147500
70
0
0
VERTEX
8
Layer 1
10
713.090542
20
310.534329
70
0
0
VERTEX
8
Layer 1
10
713.188768
20
309.337753
70
0
0
SEQEND
8
Layer 1
0
POLYLINE
8
Layer 1
62
7
70
0
10
0.000000
20
0.000000
66
1
0
VERTEX
8
Layer 1
10
326.508651
20
308.689524
70
0
0
VERTEX
8
Layer 1
10
325.669060
20
307.578767
70
0
0
VERTEX
8
Layer 1
10
325.365529
20
306.623255
70
0
0
VERTEX
8
Layer 1
10
325.605033
20
305.819238
70
0
0
VERTEX
8
Layer 1
10
326.394550
20
305.162964
70
0
0
VERTEX
8
Layer 1
10
327.741055
20
304.650680
70
0
0
VERTEX
8
Layer 1
10
329.651525
20
304.278636
70
0
0
VERTEX
8
Layer 1
10
332.132936
20
304.043080
70
0
0
VERTEX
8
Layer 1
10
335.192265
20
303.940259
70
0
0
VERTEX
8
Layer 1
10
340.635564
20
303.727105
70
0
0
VERTEX
8
Layer 1
10
345.992543
20
303.201411
70
0
0
VERTEX
8
Layer 1
10
351.371350
20
302.349289
70
0
0
VERTEX
8
Layer 1
10
356.880134
20
301.156846
70
0
0
VERTEX
8
Layer 1
10
360.180641
20
300.374797
70
0
0
VERTEX
8
Layer 1
10
362.061330
20
300.039975
70
0
0
VERTEX
8
Layer 1
10
363.099653
20
300.097563
70
0
0
VERTEX
8
Layer 1
10
363.873062
20
300.492743
70
0
0
VERTEX
8
Layer 1
10
364.744088
20
301.225402
70
0
0
VERTEX
8
Layer 1
10
365.163731
20
301.970785
70
0
0
VERTEX
8
Layer 1
10
365.154750
20
302.721401
70
0
0
VERTEX
8
Layer 1
10
364.739902
20
303.469756
70
0
0
VERTEX
8
Layer 1
10
363.941947
20
304.208361
70
0
0
VERTEX
8
Layer 1
10
362.783642
20
304.929722
70
0
0
VERTEX
8
Layer 1
10
361.287745
20
305.626349
70
0
0
VERTEX
8
Layer 1
10
359.477016
20
306.290749
70
0
0
VERTEX
8
Layer 1
10
355.002091
20
307.492901
70
0
0
VERTEX
8
Layer 1
10
349.540932
20
308.476245
70
0
0
VERTEX
8
Layer 1
10
343.275607
20
309.180848
70
0
0
VERTEX
8
Layer 1
10
336.388180
20
309.546773
70
0
0
VERTEX
8
Layer 1
10
327.506129
20
309.766377
70
0
0
VERTEX
8
Layer 1
10
326.508651
20
308.689524
70
0
0
SEQEND
8
Layer 1
0
POLYLINE
8
Layer 1
62
7
70
0
10
0.000000
20
0.000000
66
1
0
VERTEX
8
Layer 1
10
82.684833
20
308.448754
70
0
0
VERTEX
8
Layer 1
10
82.207633
20
307.768982
70
0
0
VERTEX
8
Layer 1
10
81.575900
20
306.495139
70
0
0
VERTEX
8
Layer 1
10
80.171295
20
302.876636
70
0
0
VERTEX
8
Layer 1
10
77.713649
20
296.335152
70
0
0
VERTEX
8
Layer 1
10
74.067365
20
287.335030
70
0
0
VERTEX
8
Layer 1
10
71.129543
20
280.051226
70
0
0
VERTEX
8
Layer 1
10
70.241510
20
277.526897
70
0
0
VERTEX
8
Layer 1
10
69.706045
20
275.588207
70
0
0
VERTEX
8
Layer 1
10
69.497133
20
274.115595
70
0
0
VERTEX
8
Layer 1
10
69.588760
20
272.989505
70
0
0
VERTEX
8
Layer 1
10
69.954913
20
272.090378
70
0
0
VERTEX
8
Layer 1
10
70.569578
20
271.298655
70
0
0
VERTEX
8
Layer 1
10
71.451466
20
270.525990
70
0
0
VERTEX
8
Layer 1
10
72.413225
20
270.044531
70
0
0
VERTEX
8
Layer 1
10
73.503721
20
269.864697
70
0
0
VERTEX
8
Layer 1
10
74.771817
20
269.996906
70
0
0
VERTEX
8
Layer 1
10
76.266380
20
270.451576
70
0
0
VERTEX
8
Layer 1
10
78.036275
20
271.239123
70
0
0
VERTEX
8
Layer 1
10
82.597521
20
273.854526
70
0
0
VERTEX
8
Layer 1
10
84.986705
20
275.202908
70
0
0
VERTEX
8
Layer 1
10
85.743744
20
275.521027
70
0
0
VERTEX
8
Layer 1
10
86.058267
20
275.529337
70
0
0
VERTEX
8
Layer 1
10
85.598636
20
273.837080
70
0
0
VERTEX
8
Layer 1
10
83.970707
20
269.906948
70
0
0
VERTEX
8
Layer 1
10
77.668340
20
256.378819
70
0
0
VERTEX
8
Layer 1
10
74.341953
20
249.270425
70
0
0
VERTEX
8
Layer 1
10
73.349260
20
246.844762
70
0
0
VERTEX
8
Layer 1
10
72.762309
20
245.005388
70
0
0
VERTEX
8
Layer 1
10
72.550157
20
243.627753
70
0
0
VERTEX
8
Layer 1
10
72.681860
20
242.587306
70
0
0
VERTEX
8
Layer 1
10
73.126473
20
241.759497
70
0
0
VERTEX
8
Layer 1
10
73.853053
20
241.019776
70
0
0
VERTEX
8
Layer 1
10
75.086283
20
240.289837
70
0
0
VERTEX
8
Layer 1
10
76.533485
20
240.088609
70
0
0
VERTEX
8
Layer 1
10
78.247895
20
240.446230
70
0
0
VERTEX
8
Layer 1
10
80.282750
20
241.392838
70
0
0
VERTEX
8
Layer 1
10
82.691288
20
242.958570
70
0
0
VERTEX
8
Layer 1
10
85.526744
20
245.173564
70
0
0
VERTEX
8
Layer 1
10
88.842357
20
248.067957
70
0
0
VERTEX
8
Layer 1
10
92.691362
20
251.671888
70
0
0
VERTEX
8
Layer 1
10
95.912867
20
254.676310
70
0
0
VERTEX
8
Layer 1
10
96.803990
20
255.323660
70
0
0
VERTEX
8
Layer 1
10
97.083114
20
255.417369
70
0
0
VERTEX
8
Layer 1
10
97.256411
20
255.351576
70
0
0
VERTEX
8
Layer 1
10
97.300920
20
254.722912
70
0
0
VERTEX
8
Layer 1
10
96.968305
20
253.400524
70
0
0
VERTEX
8
Layer 1
10
95.294859
20
248.525996
70
0
0
VERTEX
8
Layer 1
10
93.704012
20
243.855899
70
0
0
VERTEX
8
Layer 1
10
92.976120
20
241.014154
70
0
0
VERTEX
8
Layer 1
10
92.906248
20
240.087529
70
0
0
VERTEX
8
Layer 1
10
93.016675
20
239.388333
70
0
0
VERTEX
8
Layer 1
10
93.295588
20
238.840010
70
0
0
VERTEX
8
Layer 1
10
93.731174
20
238.366009
70
0
0
VERTEX
8
Layer 1
10
94.223515
20
238.032920
70
0
0
VERTEX
8
Layer 1
10
94.737995
20
237.904570
70
0
0
VERTEX
8
Layer 1
10
95.274426
20
237.980626
70
0
0
VERTEX
8
Layer 1
10
95.832624
20
238.260754
70
0
0
VERTEX
8
Layer 1
10
97.013574
20
239.431896
70
0
0
VERTEX
8
Layer 1
10
98.279355
20
241.415328
70
0
0
VERTEX
8
Layer 1
10
99.628481
20
244.208384
70
0
0
VERTEX
8
Layer 1
10
101.059461
20
247.808397
70
0
0
VERTEX
8
Layer 1
10
102.570809
20
252.212702
70
0
0
VERTEX
8
Layer 1
10
104.161035
20
257.418630
70
0
0
VERTEX
8
Layer 1
10
104.968887
20
260.763569
70
0
0
VERTEX
8
Layer 1
10
105.297791
20
263.497011
70
0
0
VERTEX
8
Layer 1
10
105.178786
20
265.575983
70
0
0
VERTEX
8
Layer 1
10
104.961016
20
266.356612
70
0
0
VERTEX
8
Layer 1
10
104.642907
20
266.957509
70
0
0
VERTEX
8
Layer 1
10
104.228339
20
267.373301
70
0
0
VERTEX
8
Layer 1
10
103.721192
20
267.598616
70
0
0
VERTEX
8
Layer 1
10
103.125345
20
267.628084
70
0
0
VERTEX
8
Layer 1
10
102.444677
20
267.456331
70
0
0
VERTEX
8
Layer 1
10
100.844400
20
266.487678
70
0
0
VERTEX
8
Layer 1
10
98.951396
20
264.649684
70
0
0
VERTEX
8
Layer 1
10
94.558326
20
260.270628
70
0
0
VERTEX
8
Layer 1
10
88.524180
20
254.806866
70
0
0
VERTEX
8
Layer 1
10
83.101221
20
250.231605
70
0
0
VERTEX
8
Layer 1
10
81.322768
20
248.893792
70
0
0
VERTEX
8
Layer 1
10
80.541711
20
248.518058
70
0
0
VERTEX
8
Layer 1
10
81.777644
20
251.430125
70
0
0
VERTEX
8
Layer 1
10
84.984060
20
258.193859
70
0
0
VERTEX
8
Layer 1
10
89.837132
20
268.573574
70
0
0
VERTEX
8
Layer 1
10
91.413287
20
272.352651
70
0
0
VERTEX
8
Layer 1
10
92.471428
20
275.350413
70
0
0
VERTEX
8
Layer 1
10
93.048234
20
277.686262
70
0
0
VERTEX
8
Layer 1
10
93.180386
20
279.479602
70
0
0
VERTEX
8
Layer 1
10
92.904564
20
280.849837
70
0
0
VERTEX
8
Layer 1
10
92.257446
20
281.916370
70
0
0
VERTEX
8
Layer 1
10
91.469929
20
282.603987
70
0
0
VERTEX
8
Layer 1
10
90.520872
20
282.984211
70
0
0
VERTEX
8
Layer 1
10
89.369533
20
283.045323
70
0
0
VERTEX
8
Layer 1
10
87.975170
20
282.775604
70
0
0
VERTEX
8
Layer 1
10
86.297042
20
282.163332
70
0
0
VERTEX
8
Layer 1
10
84.294407
20
281.196787
70
0
0
VERTEX
8
Layer 1
10
79.152650
20
278.154000
70
0
0
VERTEX
8
Layer 1
10
77.298709
20
277.123780
70
0
0
VERTEX
8
Layer 1
10
76.877118
20
277.182340
70
0
0
VERTEX
8
Layer 1
10
76.810760
20
277.760433
70
0
0
VERTEX
8
Layer 1
10
77.113372
20
278.960875
70
0
0
VERTEX
8
Layer 1
10
77.798688
20
280.886481
70
0
0
VERTEX
8
Layer 1
10
80.372378
20
287.324447
70
0
0
VERTEX
8
Layer 1
10
84.058722
20
296.686303
70
0
0
VERTEX
8
Layer 1
10
85.230075
20
300.003192
70
0
0
VERTEX
8
Layer 1
10
85.997082
20
302.580964
70
0
0
VERTEX
8
Layer 1
10
86.392390
20
304.547302
70
0
0
VERTEX
8
Layer 1
10
86.448651
20
306.029886
70
0
0
VERTEX
8
Layer 1
10
86.198511
20
307.156400
70
0
0
VERTEX
8
Layer 1
10
85.674621
20
308.054525
70
0
0
VERTEX
8
Layer 1
10
84.926926
20
308.844264
70
0
0
VERTEX
8
Layer 1
10
84.239258
20
309.165443
70
0
0
VERTEX
8
Layer 1
10
83.521825
20
309.029720
70
0
0
VERTEX
8
Layer 1
10
82.684833
20
308.448754
70
0
0
SEQEND
8
Layer 1
0
POLYLINE
8
Layer 1
62
7
70
0
10
0.000000
20
0.000000
66
1
0
VERTEX
8
Layer 1
10
646.492686
20
307.033235
70
0
0
VERTEX
8
Layer 1
10
643.733416
20
303.516265
70
0
0
VERTEX
8
Layer 1
10
638.626633
20
296.264707
70
0
0
VERTEX
8
Layer 1
10
629.807007
20
283.729219
70
0
0
VERTEX
8
Layer 1
10
620.526510
20
271.257975
70
0
0
VERTEX
8
Layer 1
10
610.686420
20
258.721743
70
0
0
VERTEX
8
Layer 1
10
600.188015
20
245.991291
70
0
0
VERTEX
8
Layer 1
10
595.808050
20
240.770985
70
0
0
VERTEX
8
Layer 1
10
593.485135
20
237.842134
70
0
0
VERTEX
8
Layer 1
10
592.567652
20
236.306313
70
0
0
VERTEX
8
Layer 1
10
592.403983
20
235.265096
70
0
0
VERTEX
8
Layer 1
10
592.540031
20
233.497351
70
0
0
VERTEX
8
Layer 1
10
592.728271
20
232.898220
70
0
0
VERTEX
8
Layer 1
10
593.008183
20
232.497062
70
0
0
VERTEX
8
Layer 1
10
593.388414
20
232.299983
70
0
0
VERTEX
8
Layer 1
10
593.877612
20
232.313094
70
0
0
VERTEX
8
Layer 1
10
595.217492
20
232.994312
70
0
0
VERTEX
8
Layer 1
10
597.096998
20
234.589582
70
0
0
VERTEX
8
Layer 1
10
599.585303
20
237.147769
70
0
0
VERTEX
8
Layer 1
10
606.665007
20
245.348354
70
0
0
VERTEX
8
Layer 1
10
615.913340
20
256.647164
70
0
0
VERTEX
8
Layer 1
10
624.527666
20
267.557782
70
0
0
VERTEX
8
Layer 1
10
632.339314
20
277.861677
70
0
0
VERTEX
8
Layer 1
10
639.179611
20
287.340322
70
0
0
VERTEX
8
Layer 1
10
640.946530
20
289.796768
70
0
0
VERTEX
8
Layer 1
10
642.035785
20
291.049445
70
0
0
VERTEX
8
Layer 1
10
642.409694
20
291.296535
70
0
0
VERTEX
8
Layer 1
10
642.714275
20
291.329283
70
0
0
VERTEX
8
Layer 1
10
643.248898
20
290.867213
70
0
0
VERTEX
8
Layer 1
10
644.195113
20
290.150855
70
0
0
VERTEX
8
Layer 1
10
645.714812
20
289.454340
70
0
0
VERTEX
8
Layer 1
10
649.305947
20
287.807146
70
0
0
VERTEX
8
Layer 1
10
653.786577
20
285.214398
70
0
0
VERTEX
8
Layer 1
10
658.450762
20
282.115635
70
0
0
VERTEX
8
Layer 1
10
662.592561
20
278.950395
70
0
0
VERTEX
8
Layer 1
10
663.938002
20
278.038168
70
0
0
VERTEX
8
Layer 1
10
665.220160
20
277.548643
70
0
0
VERTEX
8
Layer 1
10
666.370791
20
277.447372
70
0
0
VERTEX
8
Layer 1
10
667.321651
20
277.699910
70
0
0
VERTEX
8
Layer 1
10
668.004498
20
278.271807
70
0
0
VERTEX
8
Layer 1
10
668.351086
20
279.128616
70
0
0
VERTEX
8
Layer 1
10
668.293172
20
280.235891
70
0
0
VERTEX
8
Layer 1
10
667.762513
20
281.559183
70
0
0
VERTEX
8
Layer 1
10
666.462625
20
283.045168
70
0
0
VERTEX
8
Layer 1
10
664.079021
20
285.036796
70
0
0
VERTEX
8
Layer 1
10
660.951030
20
287.317150
70
0
0
VERTEX
8
Layer 1
10
657.417979
20
289.669314
70
0
0
VERTEX
8
Layer 1
10
653.819195
20
291.876370
70
0
0
VERTEX
8
Layer 1
10
650.494007
20
293.721402
70
0
0
VERTEX
8
Layer 1
10
647.781742
20
294.987494
70
0
0
VERTEX
8
Layer 1
10
646.761496
20
295.335651
70
0
0
VERTEX
8
Layer 1
10
646.021728
20
295.457728
70
0
0
VERTEX
8
Layer 1
10
645.436421
20
295.545744
70
0
0
VERTEX
8
Layer 1
10
645.348188
20
295.725758
70
0
0
VERTEX
8
Layer 1
10
645.419140
20
296.058663
70
0
0
VERTEX
8
Layer 1
10
646.107304
20
297.369795
70
0
0
VERTEX
8
Layer 1
10
647.638330
20
299.852452
70
0
0
VERTEX
8
Layer 1
10
648.878325
20
302.076386
70
0
0
VERTEX
8
Layer 1
10
649.700672
20
304.061885
70
0
0
VERTEX
8
Layer 1
10
650.116594
20
305.738690
70
0
0
VERTEX
8
Layer 1
10
650.137316
20
307.036542
70
0
0
VERTEX
8
Layer 1
10
649.774062
20
307.885182
70
0
0
VERTEX
8
Layer 1
10
649.451952
20
308.119091
70
0
0
VERTEX
8
Layer 1
10
649.038057
20
308.214350
70
0
0
VERTEX
8
Layer 1
10
647.940523
20
307.953787
70
0
0
VERTEX
8
Layer 1
10
646.492686
20
307.033235
70
0
0
SEQEND
8
Layer 1
0
POLYLINE
8
Layer 1
62
7
70
0
10
0.000000
20
0.000000
66
1
0
VERTEX
8
Layer 1
10
142.546737
20
306.146882
70
0
0
VERTEX
8
Layer 1
10
141.002813
20
305.556407
70
0
0
VERTEX
8
Layer 1
10
139.408783
20
304.691344
70
0
0
VERTEX
8
Layer 1
10
137.671878
20
303.494396
70
0
0
VERTEX
8
Layer 1
10
135.699329
20
301.908262
70
0
0
VERTEX
8
Layer 1
10
132.881520
20
299.519077
70
0
0
VERTEX
8
Layer 1
10
132.590479
20
301.352638
70
0
0
VERTEX
8
Layer 1
10
132.111956
20
302.992293
70
0
0
VERTEX
8
Layer 1
10
131.367279
20
304.043984
70
0
0
VERTEX
8
Layer 1
10
130.458147
20
304.537881
70
0
0
VERTEX
8
Layer 1
10
129.486259
20
304.504152
70
0
0
VERTEX
8
Layer 1
10
128.553314
20
303.972965
70
0
0
VERTEX
8
Layer 1
10
127.761012
20
302.974490
70
0
0
VERTEX
8
Layer 1
10
127.211052
20
301.538895
70
0
0
VERTEX
8
Layer 1
10
127.005132
20
299.696348
70
0
0
VERTEX
8
Layer 1
10
126.839891
20
297.145768
70
0
0
VERTEX
8
Layer 1
10
126.272567
20
292.904502
70
0
0
VERTEX
8
Layer 1
10
123.502053
20
276.524169
70
0
0
VERTEX
8
Layer 1
10
121.345660
20
263.739642
70
0
0
VERTEX
8
Layer 1
10
120.773897
20
259.508717
70
0
0
VERTEX
8
Layer 1
10
120.530455
20
256.420822
70
0
0
VERTEX
8
Layer 1
10
120.608357
20
254.252559
70
0
0
VERTEX
8
Layer 1
10
121.000627
20
252.780532
70
0
0
VERTEX
8
Layer 1
10
121.700289
20
251.781343
70
0
0
VERTEX
8
Layer 1
10
122.700366
20
251.031597
70
0
0
VERTEX
8
Layer 1
10
123.754730
20
250.489817
70
0
0
VERTEX
8
Layer 1
10
124.808101
20
250.187866
70
0
0
VERTEX
8
Layer 1
10
125.922491
20
250.143327
70
0
0
VERTEX
8
Layer 1
10
127.159913
20
250.373777
70
0
0
VERTEX
8
Layer 1
10
128.582377
20
250.896799
70
0
0
VERTEX
8
Layer 1
10
130.251896
20
251.729972
70
0
0
VERTEX
8
Layer 1
10
134.580143
20
254.397093
70
0
0
VERTEX
8
Layer 1
10
137.461204
20
256.248802
70
0
0
VERTEX
8
Layer 1
10
138.917981
20
256.949326
70
0
0
VERTEX
8
Layer 1
10
139.222489
20
256.886111
70
0
0
VERTEX
8
Layer 1
10
139.303198
20
256.556958
70
0
0
VERTEX
8
Layer 1
10
138.969575
20
255.129988
70
0
0
VERTEX
8
Layer 1
10
138.676368
20
253.477248
70
0
0
VERTEX
8
Layer 1
10
138.811197
20
252.123622
70
0
0
VERTEX
8
Layer 1
10
139.288392
20
251.112238
70
0
0
VERTEX
8
Layer 1
10
140.022285
20
250.486225
70
0
0
VERTEX
8
Layer 1
10
140.927205
20
250.288713
70
0
0
VERTEX
8
Layer 1
10
141.917484
20
250.562830
70
0
0
VERTEX
8
Layer 1
10
142.907454
20
251.351706
70
0
0
VERTEX
8
Layer 1
10
143.811444
20
252.698470
70
0
0
VERTEX
8
Layer 1
10
144.782463
20
255.191503
70
0
0
VERTEX
8
Layer 1
10
145.920170
20
258.823566
70
0
0
VERTEX
8
Layer 1
10
147.119393
20
262.440747
70
0
0
VERTEX
8
Layer 1
10
148.235272
20
264.901038
70
0
0
VERTEX
8
Layer 1
10
148.988341
20
266.456124
70
0
0
VERTEX
8
Layer 1
10
149.085451
20
267.133457
70
0
0
VERTEX
8
Layer 1
10
149.013146
20
267.808805
70
0
0
VERTEX
8
Layer 1
10
148.996113
20
268.777137
70
0
0
VERTEX
8
Layer 1
10
149.176526
20
270.449674
70
0
0
VERTEX
8
Layer 1
10
150.042373
20
275.275337
70
0
0
VERTEX
8
Layer 1
10
151.510990
20
283.317415
70
0
0
VERTEX
8
Layer 1
10
152.282689
20
290.204061
70
0
0
VERTEX
8
Layer 1
10
152.408696
20
293.207886
70
0
0
VERTEX
8
Layer 1
10
152.362275
20
295.915400
70
0
0
VERTEX
8
Layer 1
10
152.144029
20
298.324119
70
0
0
VERTEX
8
Layer 1
10
151.754556
20
300.431558
70
0
0
VERTEX
8
Layer 1
10
151.194459
20
302.235233
70
0
0
VERTEX
8
Layer 1
10
150.464337
20
303.732660
70
0
0
VERTEX
8
Layer 1
10
149.564791
20
304.921354
70
0
0
VERTEX
8
Layer 1
10
148.496423
20
305.798831
70
0
0
VERTEX
8
Layer 1
10
147.259833
20
306.362607
70
0
0
VERTEX
8
Layer 1
10
145.855621
20
306.610196
70
0
0
VERTEX
8
Layer 1
10
144.284389
20
306.539116
70
0
0
VERTEX
8
Layer 1
10
142.546737
20
306.146882
70
0
0
SEQEND
8
Layer 1
0
POLYLINE
8
Layer 1
62
7
70
0
10
0.000000
20
0.000000
66
1
0
VERTEX
8
Layer 1
10
145.462442
20
300.156722
70
0
0
VERTEX
8
Layer 1
10
145.787150
20
299.570986
70
0
0
VERTEX
8
Layer 1
10
146.047460
20
298.420603
70
0
0
VERTEX
8
Layer 1
10
146.354417
20
294.947414
70
0
0
VERTEX
8
Layer 1
10
146.342387
20
290.780190
70
0
0
VERTEX
8
Layer 1
10
145.970441
20
286.961968
70
0
0
VERTEX
8
Layer 1
10
145.618546
20
284.903512
70
0
0
VERTEX
8
Layer 1
10
143.528340
20
284.914096
70
0
0
VERTEX
8
Layer 1
10
142.259292
20
284.798299
70
0
0
VERTEX
8
Layer 1
10
140.718138
20
284.390552
70
0
0
VERTEX
8
Layer 1
10
135.937454
20
282.408495
70
0
0
VERTEX
8
Layer 1
10
132.240320
20
280.735379
70
0
0
VERTEX
8
Layer 1
10
131.188261
20
280.379551
70
0
0
VERTEX
8
Layer 1
10
130.569726
20
280.392042
70
0
0
VERTEX
8
Layer 1
10
130.311603
20
280.808724
70
0
0
VERTEX
8
Layer 1
10
130.340779
20
281.665471
70
0
0
VERTEX
8
Layer 1
10
130.968585
20
284.842658
70
0
0
VERTEX
8
Layer 1
10
131.959795
20
288.225740
70
0
0
VERTEX
8
Layer 1
10
133.454632
20
291.473729
70
0
0
VERTEX
8
Layer 1
10
135.318500
20
294.444339
70
0
0
VERTEX
8
Layer 1
10
137.416803
20
296.995286
70
0
0
VERTEX
8
Layer 1
10
139.614946
20
298.984284
70
0
0
VERTEX
8
Layer 1
10
140.709395
20
299.723587
70
0
0
VERTEX
8
Layer 1
10
141.778330
20
300.269046
70
0
0
VERTEX
8
Layer 1
10
142.804927
20
300.602875
70
0
0
VERTEX
8
Layer 1
10
143.772361
20
300.707288
70
0
0
VERTEX
8
Layer 1
10
144.663807
20
300.564499
70
0
0
VERTEX
8
Layer 1
10
145.462442
20
300.156722
70
0
0
SEQEND
8
Layer 1
0
POLYLINE
8
Layer 1
62
7
70
0
10
0.000000
20
0.000000
66
1
0
VERTEX
8
Layer 1
10
262.331399
20
289.356444
70
0
0
VERTEX
8
Layer 1
10
261.819410
20
288.596941
70
0
0
VERTEX
8
Layer 1
10
261.664980
20
287.847949
70
0
0
VERTEX
8
Layer 1
10
261.865753
20
287.111794
70
0
0
VERTEX
8
Layer 1
10
262.419373
20
286.390800
70
0
0
VERTEX
8
Layer 1
10
263.323482
20
285.687293
70
0
0
VERTEX
8
Layer 1
10
264.575724
20
285.003599
70
0
0
VERTEX
8
Layer 1
10
268.115183
20
283.704952
70
0
0
VERTEX
8
Layer 1
10
276.261694
20
281.014142
70
0
0
VERTEX
8
Layer 1
10
279.914345
20
279.869325
70
0
0
VERTEX
8
Layer 1
10
281.219431
20
279.641763
70
0
0
VERTEX
8
Layer 1
10
282.218118
20
279.650217
70
0
0
VERTEX
8
Layer 1
10
282.941226
20
279.899276
70
0
0
VERTEX
8
Layer 1
10
283.419573
20
280.393530
70
0
0
VERTEX
8
Layer 1
10
283.683981
20
281.137566
70
0
0
VERTEX
8
Layer 1
10
283.765267
20
282.135974
70
0
0
VERTEX
8
Layer 1
10
283.550803
20
282.813771
70
0
0
VERTEX
8
Layer 1
10
282.942275
20
283.543587
70
0
0
VERTEX
8
Layer 1
10
281.991977
20
284.307804
70
0
0
VERTEX
8
Layer 1
10
280.752205
20
285.088803
70
0
0
VERTEX
8
Layer 1
10
277.613418
20
286.630671
70
0
0
VERTEX
8
Layer 1
10
273.944277
20
288.028238
70
0
0
VERTEX
8
Layer 1
10
270.163143
20
289.140551
70
0
0
VERTEX
8
Layer 1
10
266.688378
20
289.826658
70
0
0
VERTEX
8
Layer 1
10
265.196621
20
289.965837
70
0
0
VERTEX
8
Layer 1
10
263.938342
20
289.945607
70
0
0
VERTEX
8
Layer 1
10
262.965837
20
289.748349
70
0
0
VERTEX
8
Layer 1
10
262.331399
20
289.356444
70
0
0
SEQEND
8
Layer 1
0
POLYLINE
8
Layer 1
62
7
70
0
10
0.000000
20
0.000000
66
1
0
VERTEX
8
Layer 1
10
342.968360
20
287.430280
70
0
0
VERTEX
8
Layer 1
10
342.195777
20
287.047958
70
0
0
VERTEX
8
Layer 1
10
341.577976
20
285.957214
70
0
0
VERTEX
8
Layer 1
10
340.741894
20
283.158918
70
0
0
VERTEX
8
Layer 1
10
339.314468
20
277.653938
70
0
0
VERTEX
8
Layer 1
10
336.684183
20
267.695365
70
0
0
VERTEX
8
Layer 1
10
336.094204
20
265.976526
70
0
0
VERTEX
8
Layer 1
10
335.615598
20
265.176204
70
0
0
VERTEX
8
Layer 1
10
334.330014
20
264.459515
70
0
0
VERTEX
8
Layer 1
10
331.242372
20
263.034405
70
0
0
VERTEX
8
Layer 1
10
321.513324
20
258.884420
70
0
0
VERTEX
8
Layer 1
10
306.718173
20
252.913113
70
0
0
VERTEX
8
Layer 1
10
304.488524
20
252.271623
70
0
0
VERTEX
8
Layer 1
10
303.983414
20
252.291337
70
0
0
VERTEX
8
Layer 1
10
303.624867
20
252.444470
70
0
0
VERTEX
8
Layer 1
10
303.056639
20
252.677012
70
0
0
VERTEX
8
Layer 1
10
302.475415
20
252.760223
70
0
0
VERTEX
8
Layer 1
10
301.317497
20
252.536661
70
0
0
VERTEX
8
Layer 1
10
300.238148
20
251.889807
70
0
0
VERTEX
8
Layer 1
10
299.324402
20
250.935686
70
0
0
VERTEX
8
Layer 1
10
298.663290
20
249.790320
70
0
0
VERTEX
8
Layer 1
10
298.341848
20
248.569735
70
0
0
VERTEX
8
Layer 1
10
298.447107
20
247.389953
70
0
0
VERTEX
8
Layer 1
10
298.686948
20
246.851621
70
0
0
VERTEX
8
Layer 1
10
299.066102
20
246.366999
70
0
0
VERTEX
8
Layer 1
10
299.842622
20
245.693738
70
0
0
VERTEX
8
Layer 1
10
300.720160
20
245.301887
70
0
0
VERTEX
8
Layer 1
10
301.907879
20
245.249115
70
0
0
VERTEX
8
Layer 1
10
303.614946
20
245.593093
70
0
0
VERTEX
8
Layer 1
10
306.050525
20
246.391493
70
0
0
VERTEX
8
Layer 1
10
309.423783
20
247.701985
70
0
0
VERTEX
8
Layer 1
10
319.819993
20
252.089929
70
0
0
VERTEX
8
Layer 1
10
327.040008
20
255.159133
70
0
0
VERTEX
8
Layer 1
10
331.018799
20
256.730384
70
0
0
VERTEX
8
Layer 1
10
332.708120
20
257.136312
70
0
0
VERTEX
8
Layer 1
10
332.991653
20
257.006227
70
0
0
VERTEX
8
Layer 1
10
333.059726
20
256.709548
70
0
0
VERTEX
8
Layer 1
10
332.459371
20
254.241815
70
0
0
VERTEX
8
Layer 1
10
330.775052
20
248.459189
70
0
0
VERTEX
8
Layer 1
10
324.855007
20
229.290812
70
0
0
VERTEX
8
Layer 1
10
320.451974
20
215.035493
70
0
0
VERTEX
8
Layer 1
10
319.140247
20
210.372269
70
0
0
VERTEX
8
Layer 1
10
318.356518
20
207.011600
70
0
0
VERTEX
8
Layer 1
10
318.051891
20
204.698184
70
0
0
VERTEX
8
Layer 1
10
318.177470
20
203.176718
70
0
0
VERTEX
8
Layer 1
10
318.684358
20
202.191900
70
0
0
VERTEX
8
Layer 1
10
319.523660
20
201.488430
70
0
0
VERTEX
8
Layer 1
10
320.404308
20
201.046623
70
0
0
VERTEX
8
Layer 1
10
321.213022
20
200.922098
70
0
0
VERTEX
8
Layer 1
10
321.950299
20
201.115384
70
0
0
VERTEX
8
Layer 1
10
322.616635
20
201.627005
70
0
0
VERTEX
8
Layer 1
10
323.212526
20
202.457491
70
0
0
VERTEX
8
Layer 1
10
323.738467
20
203.607368
70
0
0
VERTEX
8
Layer 1
10
324.582487
20
206.867402
70
0
0
VERTEX
8
Layer 1
10
325.583313
20
211.103748
70
0
0
VERTEX
8
Layer 1
10
327.058653
20
216.062654
70
0
0
VERTEX
8
Layer 1
10
328.587075
20
220.435673
70
0
0
VERTEX
8
Layer 1
10
329.747147
20
222.914361
70
0
0
VERTEX
8
Layer 1
10
330.707384
20
224.023764
70
0
0
VERTEX
8
Layer 1
10
331.861145
20
225.105594
70
0
0
VERTEX
8
Layer 1
10
334.620931
20
227.138512
70
0
0
VERTEX
8
Layer 1
10
337.769903
20
228.917057
70
0
0
VERTEX
8
Layer 1
10
341.051456
20
230.345175
70
0
0
VERTEX
8
Layer 1
10
344.208985
20
231.326809
70
0
0
VERTEX
8
Layer 1
10
346.985887
20
231.765903
70
0
0
VERTEX
8
Layer 1
10
348.151414
20
231.751980
70
0
0
VERTEX
8
Layer 1
10
349.125557
20
231.566401
70
0
0
VERTEX
8
Layer 1
10
349.876242
20
231.197159
70
0
0
VERTEX
8
Layer 1
10
350.371392
20
230.632248
70
0
0
VERTEX
8
Layer 1
10
350.614963
20
229.726514
70
0
0
VERTEX
8
Layer 1
10
350.568873
20
228.519454
70
0
0
VERTEX
8
Layer 1
10
350.258544
20
227.052790
70
0
0
VERTEX
8
Layer 1
10
349.709397
20
225.368245
70
0
0
VERTEX
8
Layer 1
10
347.996331
20
221.512397
70
0
0
VERTEX
8
Layer 1
10
345.633041
20
217.285689
70
0
0
VERTEX
8
Layer 1
10
342.822896
20
213.021898
70
0
0
VERTEX
8
Layer 1
10
339.769262
20
209.054801
70
0
0
VERTEX
8
Layer 1
10
336.675506
20
205.718177
70
0
0
VERTEX
8
Layer 1
10
335.177135
20
204.390597
70
0
0
VERTEX
8
Layer 1
10
333.744996
20
203.345803
70
0
0
VERTEX
8
Layer 1
10
332.579213
20
202.515110
70
0
0
VERTEX
8
Layer 1
10
331.634156
20
201.670744
70
0
0
VERTEX
8
Layer 1
10
330.901481
20
200.828611
70
0
0
VERTEX
8
Layer 1
10
330.372845
20
200.004616
70
0
0
VERTEX
8
Layer 1
10
330.039901
20
199.214665
70
0
0
VERTEX
8
Layer 1
10
329.894306
20
198.474664
70
0
0
VERTEX
8
Layer 1
10
329.927715
20
197.800520
70
0
0
VERTEX
8
Layer 1
10
330.131785
20
197.208139
70
0
0
VERTEX
8
Layer 1
10
330.498169
20
196.713425
70
0
0
VERTEX
8
Layer 1
10
331.018525
20
196.332286
70
0
0
VERTEX
8
Layer 1
10
331.684508
20
196.080627
70
0
0
VERTEX
8
Layer 1
10
332.487772
20
195.974355
70
0
0
VERTEX
8
Layer 1
10
333.419974
20
196.029375
70
0
0
VERTEX
8
Layer 1
10
334.472770
20
196.261593
70
0
0
VERTEX
8
Layer 1
10
335.637814
20
196.686915
70
0
0
VERTEX
8
Layer 1
10
336.906763
20
197.321248
70
0
0
VERTEX
8
Layer 1
10
340.526129
20
199.068224
70
0
0
VERTEX
8
Layer 1
10
345.292680
20
200.930201
70
0
0
VERTEX
8
Layer 1
10
350.891613
20
202.818533
70
0
0
VERTEX
8
Layer 1
10
357.008126
20
204.644575
70
0
0
VERTEX
8
Layer 1
10
363.327417
20
206.319679
70
0
0
VERTEX
8
Layer 1
10
369.534684
20
207.755202
70
0
0
VERTEX
8
Layer 1
10
375.315125
20
208.862498
70
0
0
VERTEX
8
Layer 1
10
380.353937
20
209.552920
70
0
0
VERTEX
8
Layer 1
10
383.328388
20
210.068485
70
0
0
VERTEX
8
Layer 1
10
384.373548
20
210.449283
70
0
0
VERTEX
8
Layer 1
10
385.125361
20
210.913207
70
0
0
VERTEX
8
Layer 1
10
385.584852
20
211.461096
70
0
0
VERTEX
8
Layer 1
10
385.753043
20
212.093785
70
0
0
VERTEX
8
Layer 1
10
385.630958
20
212.812112
70
0
0
VERTEX
8
Layer 1
10
385.219619
20
213.616915
70
0
0
VERTEX
8
Layer 1
10
384.745776
20
214.004643
70
0
0
VERTEX
8
Layer 1
10
383.923725
20
214.280196
70
0
0
VERTEX
8
Layer 1
10
381.331448
20
214.508932
70
0
0
VERTEX
8
Layer 1
10
377.635673
20
214.331428
70
0
0
VERTEX
8
Layer 1
10
373.029288
20
213.775995
70
0
0
VERTEX
8
Layer 1
10
367.705180
20
212.870941
70
0
0
VERTEX
8
Layer 1
10
361.856237
20
211.644573
70
0
0
VERTEX
8
Layer 1
10
355.675346
20
210.125200
70
0
0
VERTEX
8
Layer 1
10
349.355393
20
208.341130
70
0
0
VERTEX
8
Layer 1
10
347.092919
20
207.736640
70
0
0
VERTEX
8
Layer 1
10
346.515710
20
207.725075
70
0
0
VERTEX
8
Layer 1
10
346.303098
20
207.964099
70
0
0
VERTEX
8
Layer 1
10
346.451517
20
208.496314
70
0
0
VERTEX
8
Layer 1
10
346.957403
20
209.364322
70
0
0
VERTEX
8
Layer 1
10
349.027310
20
212.278125
70
0
0
VERTEX
8
Layer 1
10
351.466282
20
215.861215
70
0
0
VERTEX
8
Layer 1
10
353.417667
20
219.251050
70
0
0
VERTEX
8
Layer 1
10
354.893695
20
222.426208
70
0
0
VERTEX
8
Layer 1
10
355.906592
20
225.365268
70
0
0
VERTEX
8
Layer 1
10
356.468588
20
228.046810
70
0
0
VERTEX
8
Layer 1
10
356.591909
20
230.449411
70
0
0
VERTEX
8
Layer 1
10
356.288784
20
232.551652
70
0
0
VERTEX
8
Layer 1
10
355.571440
20
234.332110
70
0
0
VERTEX
8
Layer 1
10
354.452106
20
235.769365
70
0
0
VERTEX
8
Layer 1
10
352.943009
20
236.841995
70
0
0
VERTEX
8
Layer 1
10
351.056378
20
237.528580
70
0
0
VERTEX
8
Layer 1
10
348.804440
20
237.807697
70
0
0
VERTEX
8
Layer 1
10
346.199424
20
237.657927
70
0
0
VERTEX
8
Layer 1
10
343.253556
20
237.057847
70
0
0
VERTEX
8
Layer 1
10
339.979066
20
235.986037
70
0
0
VERTEX
8
Layer 1
10
336.388180
20
234.421076
70
0
0
VERTEX
8
Layer 1
10
332.268623
20
232.600745
70
0
0
VERTEX
8
Layer 1
10
334.490128
20
240.561055
70
0
0
VERTEX
8
Layer 1
10
339.078989
20
255.794091
70
0
0
VERTEX
8
Layer 1
10
340.613571
20
260.757668
70
0
0
VERTEX
8
Layer 1
10
344.053150
20
262.085875
70
0
0
VERTEX
8
Layer 1
10
352.644160
20
265.406391
70
0
0
VERTEX
8
Layer 1
10
359.471642
20
267.882185
70
0
0
VERTEX
8
Layer 1
10
367.413844
20
270.534340
70
0
0
VERTEX
8
Layer 1
10
374.787525
20
272.819883
70
0
0
VERTEX
8
Layer 1
10
379.909438
20
274.195838
70
0
0
VERTEX
8
Layer 1
10
383.151861
20
275.134984
70
0
0
VERTEX
8
Layer 1
10
384.247819
20
275.672165
70
0
0
VERTEX
8
Layer 1
10
384.995054
20
276.255948
70
0
0
VERTEX
8
Layer 1
10
385.394652
20
276.887480
70
0
0
VERTEX
8
Layer 1
10
385.447698
20
277.567907
70
0
0
VERTEX
8
Layer 1
10
385.155277
20
278.298379
70
0
0
VERTEX
8
Layer 1
10
384.518474
20
279.080041
70
0
0
VERTEX
8
Layer 1
10
384.088603
20
279.370510
70
0
0
VERTEX
8
Layer 1
10
383.473030
20
279.559572
70
0
0
VERTEX
8
Layer 1
10
381.645185
20
279.623221
70
0
0
VERTEX
8
Layer 1
10
378.955751
20
279.250495
70
0
0
VERTEX
8
Layer 1
10
375.325538
20
278.420898
70
0
0
VERTEX
8
Layer 1
10
370.675357
20
277.113936
70
0
0
VERTEX
8
Layer 1
10
364.926020
20
275.309113
70
0
0
VERTEX
8
Layer 1
10
349.813122
20
270.123906
70
0
0
VERTEX
8
Layer 1
10
345.424269
20
268.580064
70
0
0
VERTEX
8
Layer 1
10
344.181194
20
268.257790
70
0
0
VERTEX
8
Layer 1
10
343.459823
20
268.284393
70
0
0
VERTEX
8
Layer 1
10
343.175758
20
268.696708
70
0
0
VERTEX
8
Layer 1
10
343.244601
20
269.531571
70
0
0
VERTEX
8
Layer 1
10
344.103421
20
272.616278
70
0
0
VERTEX
8
Layer 1
10
345.239582
20
276.853849
70
0
0
VERTEX
8
Layer 1
10
346.015240
20
280.350907
70
0
0
VERTEX
8
Layer 1
10
346.428067
20
283.136878
70
0
0
VERTEX
8
Layer 1
10
346.475738
20
285.241187
70
0
0
VERTEX
8
Layer 1
10
346.155928
20
286.693256
70
0
0
VERTEX
8
Layer 1
10
345.857492
20
287.183897
70
0
0
VERTEX
8
Layer 1
10
345.466312
20
287.522512
70
0
0
VERTEX
8
Layer 1
10
344.982100
20
287.712780
70
0
0
VERTEX
8
Layer 1
10
344.404565
20
287.758379
70
0
0
VERTEX
8
Layer 1
10
342.968360
20
287.430280
70
0
0
SEQEND
8
Layer 1
0
POLYLINE
8
Layer 1
62
7
70
0
10
0.000000
20
0.000000
66
1
0
VERTEX
8
Layer 1
10
144.345901
20
276.656460
70
0
0
VERTEX
8
Layer 1
10
142.917153
20
269.996906
70
0
0
VERTEX
8
Layer 1
10
142.012279
20
266.073140
70
0
0
VERTEX
8
Layer 1
10
138.268430
20
263.305602
70
0
0
VERTEX
8
Layer 1
10
133.158588
20
259.727324
70
0
0
VERTEX
8
Layer 1
10
129.494858
20
257.614753
70
0
0
VERTEX
8
Layer 1
10
128.211640
20
257.110975
70
0
0
VERTEX
8
Layer 1
10
127.297579
20
256.977066
70
0
0
VERTEX
8
Layer 1
10
126.755214
20
257.214173
70
0
0
VERTEX
8
Layer 1
10
126.587091
20
257.823442
70
0
0
VERTEX
8
Layer 1
10
126.885697
20
261.082650
70
0
0
VERTEX
8
Layer 1
10
127.515446
20
264.464145
70
0
0
VERTEX
8
Layer 1
10
128.285589
20
267.142676
70
0
0
VERTEX
8
Layer 1
10
128.663700
20
267.960439
70
0
0
VERTEX
8
Layer 1
10
129.005379
20
268.292992
70
0
0
VERTEX
8
Layer 1
10
130.367775
20
268.964371
70
0
0
VERTEX
8
Layer 1
10
132.532601
20
270.479109
70
0
0
VERTEX
8
Layer 1
10
135.098767
20
272.534588
70
0
0
VERTEX
8
Layer 1
10
137.665181
20
274.828192
70
0
0
VERTEX
8
Layer 1
10
141.513334
20
278.301753
70
0
0
VERTEX
8
Layer 1
10
142.801837
20
279.259451
70
0
0
VERTEX
8
Layer 1
10
143.715202
20
279.711071
70
0
0
VERTEX
8
Layer 1
10
144.289858
20
279.666598
70
0
0
VERTEX
8
Layer 1
10
144.562239
20
279.136017
70
0
0
VERTEX
8
Layer 1
10
144.568776
20
278.129309
70
0
0
VERTEX
8
Layer 1
10
144.345901
20
276.656460
70
0
0
SEQEND
8
Layer 1
0
POLYLINE
8
Layer 1
62
7
70
0
10
0.000000
20
0.000000
66
1
0
VERTEX
8
Layer 1
10
131.458064
20
273.931255
70
0
0
VERTEX
8
Layer 1
10
129.706193
20
272.270997
70
0
0
VERTEX
8
Layer 1
10
128.865150
20
271.690237
70
0
0
VERTEX
8
Layer 1
10
128.725732
20
271.962841
70
0
0
VERTEX
8
Layer 1
10
128.736042
20
272.326725
70
0
0
VERTEX
8
Layer 1
10
129.145939
20
273.236064
70
0
0
VERTEX
8
Layer 1
10
129.975034
20
274.233707
70
0
0
VERTEX
8
Layer 1
10
131.103522
20
275.135108
70
0
0
VERTEX
8
Layer 1
10
132.751006
20
276.104143
70
0
0
VERTEX
8
Layer 1
10
133.184183
20
276.273642
70
0
0
VERTEX
8
Layer 1
10
133.357439
20
276.231805
70
0
0
VERTEX
8
Layer 1
10
132.925548
20
275.510155
70
0
0
VERTEX
8
Layer 1
10
131.458064
20
273.931255
70
0
0
SEQEND
8
Layer 1
0
POLYLINE
8
Layer 1
62
7
70
0
10
0.000000
20
0.000000
66
1
0
VERTEX
8
Layer 1
10
441.237132
20
274.007985
70
0
0
VERTEX
8
Layer 1
10
440.771373
20
273.265034
70
0
0
VERTEX
8
Layer 1
10
439.998351
20
271.557000
70
0
0
VERTEX
8
Layer 1
10
437.710116
20
265.763124
70
0
0
VERTEX
8
Layer 1
10
431.422094
20
248.286217
70
0
0
VERTEX
8
Layer 1
10
425.246686
20
229.856317
70
0
0
VERTEX
8
Layer 1
10
423.099218
20
222.871196
70
0
0
VERTEX
8
Layer 1
10
422.057510
20
218.752471
70
0
0
VERTEX
8
Layer 1
10
421.924795
20
216.483165
70
0
0
VERTEX
8
Layer 1
10
422.053987
20
215.652117
70
0
0
VERTEX
8
Layer 1
10
422.294064
20
215.016972
70
0
0
VERTEX
8
Layer 1
10
422.630414
20
214.572854
70
0
0
VERTEX
8
Layer 1
10
423.048425
20
214.314887
70
0
0
VERTEX
8
Layer 1
10
423.533486
20
214.238195
70
0
0
VERTEX
8
Layer 1
10
424.070987
20
214.337903
70
0
0
VERTEX
8
Layer 1
10
425.244857
20
215.047017
70
0
0
VERTEX
8
Layer 1
10
426.453143
20
216.403222
70
0
0
VERTEX
8
Layer 1
10
427.578954
20
218.367513
70
0
0
VERTEX
8
Layer 1
10
428.505398
20
220.900885
70
0
0
VERTEX
8
Layer 1
10
432.296872
20
233.072695
70
0
0
VERTEX
8
Layer 1
10
435.397785
20
242.138962
70
0
0
VERTEX
8
Layer 1
10
435.960024
20
242.318879
70
0
0
VERTEX
8
Layer 1
10
437.046137
20
242.078108
70
0
0
VERTEX
8
Layer 1
10
437.934268
20
241.885252
70
0
0
VERTEX
8
Layer 1
10
438.985861
20
242.069178
70
0
0
VERTEX
8
Layer 1
10
440.639215
20
242.773507
70
0
0
VERTEX
8
Layer 1
10
443.332629
20
244.141856
70
0
0
VERTEX
8
Layer 1
10
447.232376
20
246.060413
70
0
0
VERTEX
8
Layer 1
10
450.958242
20
247.713065
70
0
0
VERTEX
8
Layer 1
10
453.813464
20
248.809100
70
0
0
VERTEX
8
Layer 1
10
454.696846
20
249.057539
70
0
0
VERTEX
8
Layer 1
10
455.101281
20
249.057808
70
0
0
VERTEX
8
Layer 1
10
455.214592
20
248.415698
70
0
0
VERTEX
8
Layer 1
10
454.959026
20
247.266085
70
0
0
VERTEX
8
Layer 1
10
453.697337
20
244.175590
70
0
0
VERTEX
8
Layer 1
10
452.028356
20
241.248806
70
0
0
VERTEX
8
Layer 1
10
451.263675
20
240.303831
70
0
0
VERTEX
8
Layer 1
10
450.664224
20
239.948215
70
0
0
VERTEX
8
Layer 1
10
449.493573
20
239.641102
70
0
0
VERTEX
8
Layer 1
10
447.495718
20
238.821339
70
0
0
VERTEX
8
Layer 1
10
442.197237
20
236.253313
70
0
0
VERTEX
8
Layer 1
10
437.126463
20
233.463038
70
0
0
VERTEX
8
Layer 1
10
435.413241
20
232.365463
70
0
0
VERTEX
8
Layer 1
10
434.641077
20
231.669413
70
0
0
VERTEX
8
Layer 1
10
434.151527
20
230.205628
70
0
0
VERTEX
8
Layer 1
10
434.175494
20
229.133385
70
0
0
VERTEX
8
Layer 1
10
434.371850
20
228.744673
70
0
0
VERTEX
8
Layer 1
10
434.686749
20
228.454543
70
0
0
VERTEX
8
Layer 1
10
435.659061
20
228.170964
70
0
0
VERTEX
8
Layer 1
10
437.066198
20
228.284507
70
0
0
VERTEX
8
Layer 1
10
438.881929
20
228.797034
70
0
0
VERTEX
8
Layer 1
10
441.080025
20
229.710403
70
0
0
VERTEX
8
Layer 1
10
443.634254
20
231.026476
70
0
0
VERTEX
8
Layer 1
10
447.387694
20
233.044252
70
0
0
VERTEX
8
Layer 1
10
448.434141
20
233.449953
70
0
0
VERTEX
8
Layer 1
10
448.978169
20
233.407062
70
0
0
VERTEX
8
Layer 1
10
449.058102
20
232.880728
70
0
0
VERTEX
8
Layer 1
10
448.712263
20
231.836100
70
0
0
VERTEX
8
Layer 1
10
446.896562
20
228.052563
70
0
0
VERTEX
8
Layer 1
10
444.301003
20
222.850862
70
0
0
VERTEX
8
Layer 1
10
440.747653
20
220.967031
70
0
0
VERTEX
8
Layer 1
10
437.717516
20
219.546881
70
0
0
VERTEX
8
Layer 1
10
435.421597
20
218.781575
70
0
0
VERTEX
8
Layer 1
10
433.858609
20
218.285466
70
0
0
VERTEX
8
Layer 1
10
432.656994
20
217.459859
70
0
0
VERTEX
8
Layer 1
10
431.838797
20
216.426698
70
0
0
VERTEX
8
Layer 1
10
431.426063
20
215.307931
70
0
0
VERTEX
8
Layer 1
10
431.440838
20
214.225502
70
0
0
VERTEX
8
Layer 1
10
431.905165
20
213.301358
70
0
0
VERTEX
8
Layer 1
10
432.841091
20
212.657445
70
0
0
VERTEX
8
Layer 1
10
434.270661
20
212.415708
70
0
0
VERTEX
8
Layer 1
10
435.181154
20
212.582106
70
0
0
VERTEX
8
Layer 1
10
436.535383
20
213.056330
70
0
0
VERTEX
8
Layer 1
10
440.318491
20
214.778434
70
0
0
VERTEX
8
Layer 1
10
445.106870
20
217.282382
70
0
0
VERTEX
8
Layer 1
10
450.387404
20
220.268531
70
0
0
VERTEX
8
Layer 1
10
455.646978
20
223.437244
70
0
0
VERTEX
8
Layer 1
10
460.372477
20
226.488878
70
0
0
VERTEX
8
Layer 1
10
464.050785
20
229.123794
70
0
0
VERTEX
8
Layer 1
10
466.168788
20
231.042351
70
0
0
VERTEX
8
Layer 1
10
466.960201
20
232.237145
70
0
0
VERTEX
8
Layer 1
10
467.185448
20
233.092828
70
0
0
VERTEX
8
Layer 1
10
467.099750
20
233.393416
70
0
0
VERTEX
8
Layer 1
10
466.889301
20
233.609122
70
0
0
VERTEX
8
Layer 1
10
466.116533
20
233.785746
70
0
0
VERTEX
8
Layer 1
10
464.911915
20
233.622423
70
0
0
VERTEX
8
Layer 1
10
463.320221
20
233.118873
70
0
0
VERTEX
8
Layer 1
10
461.386223
20
232.274817
70
0
0
VERTEX
8
Layer 1
10
459.154692
20
231.089976
70
0
0
VERTEX
8
Layer 1
10
455.388932
20
228.960910
70
0
0
VERTEX
8
Layer 1
10
453.630861
20
228.194115
70
0
0
VERTEX
8
Layer 1
10
453.345804
20
228.303276
70
0
0
VERTEX
8
Layer 1
10
453.371983
20
228.731053
70
0
0
VERTEX
8
Layer 1
10
454.103803
20
230.513185
70
0
0
VERTEX
8
Layer 1
10
458.888704
20
241.943295
70
0
0
VERTEX
8
Layer 1
10
460.777155
20
246.990159
70
0
0
VERTEX
8
Layer 1
10
462.317782
20
251.554479
70
0
0
VERTEX
8
Layer 1
10
463.501719
20
255.608443
70
0
0
VERTEX
8
Layer 1
10
464.320097
20
259.124240
70
0
0
VERTEX
8
Layer 1
10
464.764048
20
262.074056
70
0
0
VERTEX
8
Layer 1
10
464.824706
20
264.430080
70
0
0
VERTEX
8
Layer 1
10
464.617971
20
266.148421
70
0
0
VERTEX
8
Layer 1
10
464.240277
20
267.684435
70
0
0
VERTEX
8
Layer 1
10
463.701183
20
269.035880
70
0
0
VERTEX
8
Layer 1
10
463.010245
20
270.200511
70
0
0
VERTEX
8
Layer 1
10
462.177022
20
271.176084
70
0
0
VERTEX
8
Layer 1
10
461.211071
20
271.960355
70
0
0
VERTEX
8
Layer 1
10
460.121949
20
272.551080
70
0
0
VERTEX
8
Layer 1
10
458.919213
20
272.946015
70
0
0
VERTEX
8
Layer 1
10
457.612423
20
273.142915
70
0
0
VERTEX
8
Layer 1
10
456.211134
20
273.139537
70
0
0
VERTEX
8
Layer 1
10
454.724905
20
272.933637
70
0
0
VERTEX
8
Layer 1
10
453.163293
20
272.522971
70
0
0
VERTEX
8
Layer 1
10
451.535856
20
271.905294
70
0
0
VERTEX
8
Layer 1
10
449.852150
20
271.078363
70
0
0
VERTEX
8
Layer 1
10
448.121735
20
270.039934
70
0
0
VERTEX
8
Layer 1
10
446.354167
20
268.787762
70
0
0
VERTEX
8
Layer 1
10
443.964982
20
266.967431
70
0
0
VERTEX
8
Layer 1
10
444.335399
20
268.668700
70
0
0
VERTEX
8
Layer 1
10
444.588385
20
270.278718
70
0
0
VERTEX
8
Layer 1
10
444.622967
20
271.681060
70
0
0
VERTEX
8
Layer 1
10
444.456879
20
272.844905
70
0
0
VERTEX
8
Layer 1
10
444.107857
20
273.739433
70
0
0
VERTEX
8
Layer 1
10
443.593636
20
274.333825
70
0
0
VERTEX
8
Layer 1
10
442.931951
20
274.597261
70
0
0
VERTEX
8
Layer 1
10
442.140538
20
274.498920
70
0
0
VERTEX
8
Layer 1
10
441.237132
20
274.007985
70
0
0
SEQEND
8
Layer 1
0
POLYLINE
8
Layer 1
62
7
70
0
10
0.000000
20
0.000000
66
1
0
VERTEX
8
Layer 1
10
510.650482
20
272.044779
70
0
0
VERTEX
8
Layer 1
10
506.591778
20
268.430575
70
0
0
VERTEX
8
Layer 1
10
505.510461
20
267.587175
70
0
0
VERTEX
8
Layer 1
10
505.188145
20
267.457473
70
0
0
VERTEX
8
Layer 1
10
505.009572
20
267.525370
70
0
0
VERTEX
8
Layer 1
10
505.078198
20
268.262771
70
0
0
VERTEX
8
Layer 1
10
505.705425
20
269.816990
70
0
0
VERTEX
8
Layer 1
10
506.217642
20
270.715042
70
0
0
VERTEX
8
Layer 1
10
506.923830
20
271.451121
70
0
0
VERTEX
8
Layer 1
10
507.989190
20
272.159914
70
0
0
VERTEX
8
Layer 1
10
509.578921
20
272.976111
70
0
0
VERTEX
8
Layer 1
10
511.807619
20
273.992192
70
0
0
VERTEX
8
Layer 1
10
512.692401
20
274.207083
70
0
0
VERTEX
8
Layer 1
10
512.648032
20
273.999355
70
0
0
VERTEX
8
Layer 1
10
512.288333
20
273.573655
70
0
0
VERTEX
8
Layer 1
10
510.650482
20
272.044779
70
0
0
SEQEND
8
Layer 1
0
POLYLINE
8
Layer 1
62
7
70
0
10
0.000000
20
0.000000
66
1
0
VERTEX
8
Layer 1
10
650.352951
20
271.155780
70
0
0
VERTEX
8
Layer 1
10
646.762477
20
269.747123
70
0
0
VERTEX
8
Layer 1
10
640.020324
20
266.845723
70
0
0
VERTEX
8
Layer 1
10
627.492980
20
261.130730
70
0
0
VERTEX
8
Layer 1
10
626.322490
20
260.300477
70
0
0
VERTEX
8
Layer 1
10
625.631970
20
259.284933
70
0
0
VERTEX
8
Layer 1
10
625.461851
20
258.183565
70
0
0
VERTEX
8
Layer 1
10
625.852566
20
257.095839
70
0
0
VERTEX
8
Layer 1
10
626.318025
20
256.533967
70
0
0
VERTEX
8
Layer 1
10
626.877494
20
256.163308
70
0
0
VERTEX
8
Layer 1
10
627.567436
20
255.988792
70
0
0
VERTEX
8
Layer 1
10
628.424312
20
256.015348
70
0
0
VERTEX
8
Layer 1
10
630.784724
20
256.691399
70
0
0
VERTEX
8
Layer 1
10
634.250430
20
258.230900
70
0
0
VERTEX
8
Layer 1
10
637.683395
20
259.792271
70
0
0
VERTEX
8
Layer 1
10
639.235174
20
260.315814
70
0
0
VERTEX
8
Layer 1
10
638.919204
20
258.300477
70
0
0
VERTEX
8
Layer 1
10
637.850413
20
254.033622
70
0
0
VERTEX
8
Layer 1
10
636.555899
20
249.481513
70
0
0
VERTEX
8
Layer 1
10
635.562762
20
246.610415
70
0
0
VERTEX
8
Layer 1
10
634.851462
20
245.772054
70
0
0
VERTEX
8
Layer 1
10
633.526093
20
244.742914
70
0
0
VERTEX
8
Layer 1
10
629.752850
20
242.491188
70
0
0
VERTEX
8
Layer 1
10
625.682447
20
240.613021
70
0
0
VERTEX
8
Layer 1
10
623.985628
20
240.050829
70
0
0
VERTEX
8
Layer 1
10
622.754299
20
239.866194
70
0
0
VERTEX
8
Layer 1
10
621.577437
20
239.713372
70
0
0
VERTEX
8
Layer 1
10
620.540690
20
239.219082
70
0
0
VERTEX
8
Layer 1
10
619.687932
20
238.469491
70
0
0
VERTEX
8
Layer 1
10
619.063035
20
237.550762
70
0
0
VERTEX
8
Layer 1
10
618.709874
20
236.549062
70
0
0
VERTEX
8
Layer 1
10
618.672321
20
235.550556
70
0
0
VERTEX
8
Layer 1
10
618.994249
20
234.641409
70
0
0
VERTEX
8
Layer 1
10
619.719532
20
233.907785
70
0
0
VERTEX
8
Layer 1
10
620.326652
20
233.587795
70
0
0
VERTEX
8
Layer 1
10
620.986760
20
233.412105
70
0
0
VERTEX
8
Layer 1
10
621.740941
20
233.390329
70
0
0
VERTEX
8
Layer 1
10
622.630275
20
233.532077
70
0
0
VERTEX
8
Layer 1
10
624.978739
20
234.344595
70
0
0
VERTEX
8
Layer 1
10
628.360813
20
235.926553
70
0
0
VERTEX
8
Layer 1
10
631.653548
20
237.467088
70
0
0
VERTEX
8
Layer 1
10
633.152411
20
237.979717
70
0
0
VERTEX
8
Layer 1
10
632.792082
20
236.012253
70
0
0
VERTEX
8
Layer 1
10
631.625105
20
231.443525
70
0
0
VERTEX
8
Layer 1
10
628.450771
20
220.408760
70
0
0
VERTEX
8
Layer 1
10
627.766116
20
218.670724
70
0
0
VERTEX
8
Layer 1
10
626.983451
20
217.458205
70
0
0
VERTEX
8
Layer 1
10
626.116637
20
216.769871
70
0
0
VERTEX
8
Layer 1
10
625.179533
20
216.604388
70
0
0
VERTEX
8
Layer 1
10
624.185998
20
216.960422
70
0
0
VERTEX
8
Layer 1
10
623.149892
20
217.836642
70
0
0
VERTEX
8
Layer 1
10
622.085074
20
219.231712
70
0
0
VERTEX
8
Layer 1
10
621.005405
20
221.144301
70
0
0
VERTEX
8
Layer 1
10
619.839834
20
222.929410
70
0
0
VERTEX
8
Layer 1
10
619.211749
20
223.514944
70
0
0
VERTEX
8
Layer 1
10
618.562643
20
223.891996
70
0
0
VERTEX
8
Layer 1
10
617.899397
20
224.057711
70
0
0
VERTEX
8
Layer 1
10
617.228896
20
224.009239
70
0
0
VERTEX
8
Layer 1
10
616.558023
20
223.743726
70
0
0
VERTEX
8
Layer 1
10
615.893662
20
223.258319
70
0
0
VERTEX
8
Layer 1
10
615.397122
20
222.642586
70
0
0
VERTEX
8
Layer 1
10
615.113333
20
221.911023
70
0
0
VERTEX
8
Layer 1
10
615.026407
20
221.085094
70
0
0
VERTEX
8
Layer 1
10
615.120459
20
220.186263
70
0
0
VERTEX
8
Layer 1
10
615.787947
20
218.255747
70
0
0
VERTEX
8
Layer 1
10
616.988704
20
216.291187
70
0
0
VERTEX
8
Layer 1
10
618.595638
20
214.464294
70
0
0
VERTEX
8
Layer 1
10
620.481655
20
212.946776
70
0
0
VERTEX
8
Layer 1
10
622.519662
20
211.910344
70
0
0
VERTEX
8
Layer 1
10
623.555946
20
211.626195
70
0
0
VERTEX
8
Layer 1
10
624.582567
20
211.526709
70
0
0
VERTEX
8
Layer 1
10
625.177765
20
211.372367
70
0
0
VERTEX
8
Layer 1
10
625.542590
20
210.941361
70
0
0
VERTEX
8
Layer 1
10
625.686033
20
210.281717
70
0
0
VERTEX
8
Layer 1
10
625.617087
20
209.441464
70
0
0
VERTEX
8
Layer 1
10
625.344742
20
208.468631
70
0
0
VERTEX
8
Layer 1
10
624.877991
20
207.411245
70
0
0
VERTEX
8
Layer 1
10
624.225825
20
206.317333
70
0
0
VERTEX
8
Layer 1
10
623.397235
20
205.234925
70
0
0
VERTEX
8
Layer 1
10
622.560797
20
204.514619
70
0
0
VERTEX
8
Layer 1
10
621.225629
20
203.646104
70
0
0
VERTEX
8
Layer 1
10
617.686542
20
201.765581
70
0
0
VERTEX
8
Layer 1
10
614.034842
20
200.195611
70
0
0
VERTEX
8
Layer 1
10
612.558908
20
199.715290
70
0
0
VERTEX
8
Layer 1
10
611.525396
20
199.538453
70
0
0
VERTEX
8
Layer 1
10
610.695055
20
199.439917
70
0
0
VERTEX
8
Layer 1
10
609.847568
20
199.165391
70
0
0
VERTEX
8
Layer 1
10
608.258788
20
198.214877
70
0
0
VERTEX
8
Layer 1
10
607.074325
20
196.939918
70
0
0
VERTEX
8
Layer 1
10
606.732232
20
196.259836
70
0
0
VERTEX
8
Layer 1
10
606.609444
20
195.593521
70
0
0
VERTEX
8
Layer 1
10
606.769124
20
194.270730
70
0
0
VERTEX
8
Layer 1
10
607.262303
20
193.330675
70
0
0
VERTEX
8
Layer 1
10
608.110188
20
192.773604
70
0
0
VERTEX
8
Layer 1
10
609.333988
20
192.599764
70
0
0
VERTEX
8
Layer 1
10
610.954910
20
192.809405
70
0
0
VERTEX
8
Layer 1
10
612.994163
20
193.402774
70
0
0
VERTEX
8
Layer 1
10
615.472954
20
194.380118
70
0
0
VERTEX
8
Layer 1
10
618.412492
20
195.741687
70
0
0
VERTEX
8
Layer 1
10
628.035086
20
200.228932
70
0
0
VERTEX
8
Layer 1
10
640.388425
20
205.751524
70
0
0
VERTEX
8
Layer 1
10
651.221238
20
210.437702
70
0
0
VERTEX
8
Layer 1
10
656.282257
20
212.415708
70
0
0
VERTEX
8
Layer 1
10
656.826621
20
212.564892
70
0
0
VERTEX
8
Layer 1
10
657.289532
20
212.967240
70
0
0
VERTEX
8
Layer 1
10
657.654032
20
213.554939
70
0
0
VERTEX
8
Layer 1
10
657.903158
20
214.260182
70
0
0
VERTEX
8
Layer 1
10
658.019952
20
215.015158
70
0
0
VERTEX
8
Layer 1
10
657.987453
20
215.752058
70
0
0
VERTEX
8
Layer 1
10
657.788700
20
216.403072
70
0
0
VERTEX
8
Layer 1
10
657.406734
20
216.900390
70
0
0
VERTEX
8
Layer 1
10
657.012619
20
217.089102
70
0
0
VERTEX
8
Layer 1
10
656.388503
20
217.116273
70
0
0
VERTEX
8
Layer 1
10
654.049176
20
216.559739
70
0
0
VERTEX
8
Layer 1
10
649.586570
20
214.978277
70
0
0
VERTEX
8
Layer 1
10
642.198503
20
212.119375
70
0
0
VERTEX
8
Layer 1
10
637.078698
20
210.168985
70
0
0
VERTEX
8
Layer 1
10
635.641656
20
209.732082
70
0
0
VERTEX
8
Layer 1
10
634.889067
20
209.674628
70
0
0
VERTEX
8
Layer 1
10
634.754415
20
209.793020
70
0
0
VERTEX
8
Layer 1
10
634.772842
20
210.012064
70
0
0
VERTEX
8
Layer 1
10
635.244890
20
210.759832
70
0
0
VERTEX
8
Layer 1
10
637.761447
20
213.548123
70
0
0
VERTEX
8
Layer 1
10
642.721995
20
218.896860
70
0
0
VERTEX
8
Layer 1
10
646.685087
20
223.372131
70
0
0
VERTEX
8
Layer 1
10
649.694564
20
227.042306
70
0
0
VERTEX
8
Layer 1
10
651.794267
20
229.975751
70
0
0
VERTEX
8
Layer 1
10
653.028041
20
232.240835
70
0
0
VERTEX
8
Layer 1
10
653.333904
20
233.144106
70
0
0
VERTEX
8
Layer 1
10
653.439726
20
233.905925
70
0
0
VERTEX
8
Layer 1
10
653.350986
20
234.534837
70
0
0
VERTEX
8
Layer 1
10
653.073164
20
235.039389
70
0
0
VERTEX
8
Layer 1
10
652.611742
20
235.428126
70
0
0
VERTEX
8
Layer 1
10
651.972199
20
235.709595
70
0
0
VERTEX
8
Layer 1
10
651.398928
20
235.823438
70
0
0
VERTEX
8
Layer 1
10
650.831888
20
235.781446
70
0
0
VERTEX
8
Layer 1
10
650.247051
20
235.564953
70
0
0
VERTEX
8
Layer 1
10
649.620387
20
235.155294
70
0
0
VERTEX
8
Layer 1
10
648.145461
20
233.681815
70
0
0
VERTEX
8
Layer 1
10
646.214873
20
231.211684
70
0
0
VERTEX
8
Layer 1
10
643.026772
20
227.166086
70
0
0
VERTEX
8
Layer 1
10
639.150838
20
222.591901
70
0
0
VERTEX
8
Layer 1
10
635.773477
20
218.849664
70
0
0
VERTEX
8
Layer 1
10
634.642514
20
217.715693
70
0
0
VERTEX
8
Layer 1
10
634.081097
20
217.299910
70
0
0
VERTEX
8
Layer 1
10
633.792908
20
217.406157
70
0
0
VERTEX
8
Layer 1
10
633.795678
20
218.008993
70
0
0
VERTEX
8
Layer 1
10
634.972742
20
222.409008
70
0
0
VERTEX
8
Layer 1
10
638.388508
20
234.484576
70
0
0
VERTEX
8
Layer 1
10
640.536922
20
242.117796
70
0
0
VERTEX
8
Layer 1
10
645.889436
20
245.313958
70
0
0
VERTEX
8
Layer 1
10
649.704351
20
247.677263
70
0
0
VERTEX
8
Layer 1
10
652.094238
20
249.397135
70
0
0
VERTEX
8
Layer 1
10
653.329717
20
250.699297
70
0
0
VERTEX
8
Layer 1
10
653.599121
20
251.264275
70
0
0
VERTEX
8
Layer 1
10
653.681406
20
251.809471
70
0
0
VERTEX
8
Layer 1
10
653.595545
20
252.552732
70
0
0
VERTEX
8
Layer 1
10
653.331371
20
253.081867
70
0
0
VERTEX
8
Layer 1
10
652.878991
20
253.396814
70
0
0
VERTEX
8
Layer 1
10
652.228514
20
253.497510
70
0
0
VERTEX
8
Layer 1
10
651.370051
20
253.383895
70
0
0
VERTEX
8
Layer 1
10
650.293710
20
253.055905
70
0
0
VERTEX
8
Layer 1
10
647.447830
20
251.756554
70
0
0
VERTEX
8
Layer 1
10
644.560651
20
250.307508
70
0
0
VERTEX
8
Layer 1
10
643.732434
20
250.040150
70
0
0
VERTEX
8
Layer 1
10
643.251544
20
250.133668
70
0
0
VERTEX
8
Layer 1
10
643.070790
20
250.630139
70
0
0
VERTEX
8
Layer 1
10
643.142982
20
251.571636
70
0
0
VERTEX
8
Layer 1
10
643.857439
20
254.958009
70
0
0
VERTEX
8
Layer 1
10
644.660779
20
259.240615
70
0
0
VERTEX
8
Layer 1
10
644.684550
20
260.413669
70
0
0
VERTEX
8
Layer 1
10
644.489792
20
261.270959
70
0
0
VERTEX
8
Layer 1
10
644.229550
20
262.246526
70
0
0
VERTEX
8
Layer 1
10
644.317849
20
262.628177
70
0
0
VERTEX
8
Layer 1
10
644.616461
20
262.997363
70
0
0
VERTEX
8
Layer 1
10
646.038719
20
263.873215
70
0
0
VERTEX
8
Layer 1
10
648.884516
20
265.223829
70
0
0
VERTEX
8
Layer 1
10
651.511742
20
266.513588
70
0
0
VERTEX
8
Layer 1
10
653.112552
20
267.534961
70
0
0
VERTEX
8
Layer 1
10
653.909691
20
268.469022
70
0
0
VERTEX
8
Layer 1
10
654.125905
20
269.496844
70
0
0
VERTEX
8
Layer 1
10
654.058199
20
270.044965
70
0
0
VERTEX
8
Layer 1
10
653.860082
20
270.502425
70
0
0
VERTEX
8
Layer 1
10
653.102630
20
271.131967
70
0
0
VERTEX
8
Layer 1
10
651.913578
20
271.358682
70
0
0
VERTEX
8
Layer 1
10
650.352951
20
271.155780
70
0
0
SEQEND
8
Layer 1
0
POLYLINE
8
Layer 1
62
7
70
0
10
0.000000
20
0.000000
66
1
0
VERTEX
8
Layer 1
10
458.157214
20
266.737244
70
0
0
VERTEX
8
Layer 1
10
458.548255
20
265.841630
70
0
0
VERTEX
8
Layer 1
10
458.776297
20
264.636951
70
0
0
VERTEX
8
Layer 1
10
458.846520
20
263.179512
70
0
0
VERTEX
8
Layer 1
10
458.764102
20
261.525620
70
0
0
VERTEX
8
Layer 1
10
458.162051
20
257.853704
70
0
0
VERTEX
8
Layer 1
10
457.011570
20
254.071656
70
0
0
VERTEX
8
Layer 1
10
456.726689
20
253.411562
70
0
0
VERTEX
8
Layer 1
10
456.437094
20
253.130732
70
0
0
VERTEX
8
Layer 1
10
455.996191
20
253.182781
70
0
0
VERTEX
8
Layer 1
10
455.257385
20
253.521323
70
0
0
VERTEX
8
Layer 1
10
454.563635
20
253.744017
70
0
0
VERTEX
8
Layer 1
10
453.688532
20
253.795745
70
0
0
VERTEX
8
Layer 1
10
451.285002
20
253.355297
70
0
0
VERTEX
8
Layer 1
10
447.828266
20
252.137967
70
0
0
VERTEX
8
Layer 1
10
443.099796
20
250.081744
70
0
0
VERTEX
8
Layer 1
10
439.788168
20
248.625504
70
0
0
VERTEX
8
Layer 1
10
438.818807
20
248.327295
70
0
0
VERTEX
8
Layer 1
10
438.242383
20
248.345749
70
0
0
VERTEX
8
Layer 1
10
438.010371
20
248.703406
70
0
0
VERTEX
8
Layer 1
10
438.074249
20
249.422808
70
0
0
VERTEX
8
Layer 1
10
438.895572
20
252.037012
70
0
0
VERTEX
8
Layer 1
10
439.610754
20
253.795259
70
0
0
VERTEX
8
Layer 1
10
440.526489
20
255.544887
70
0
0
VERTEX
8
Layer 1
10
441.613763
20
257.263756
70
0
0
VERTEX
8
Layer 1
10
442.843564
20
258.929730
70
0
0
VERTEX
8
Layer 1
10
445.614688
20
262.014437
70
0
0
VERTEX
8
Layer 1
10
448.607753
20
264.621903
70
0
0
VERTEX
8
Layer 1
10
451.590647
20
266.575021
70
0
0
VERTEX
8
Layer 1
10
453.005746
20
267.250855
70
0
0
VERTEX
8
Layer 1
10
454.331262
20
267.696688
70
0
0
VERTEX
8
Layer 1
10
455.538180
20
267.890381
70
0
0
VERTEX
8
Layer 1
10
456.597487
20
267.809797
70
0
0
VERTEX
8
Layer 1
10
457.480170
20
267.432797
70
0
0
VERTEX
8
Layer 1
10
458.157214
20
266.737244
70
0
0
SEQEND
8
Layer 1
0
POLYLINE
8
Layer 1
62
7
70
0
10
0.000000
20
0.000000
66
1
0
VERTEX
8
Layer 1
10
719.845676
20
263.736873
70
0
0
VERTEX
8
Layer 1
10
717.495022
20
262.736873
70
0
0
VERTEX
8
Layer 1
10
714.819922
20
261.372493
70
0
0
VERTEX
8
Layer 1
10
711.986073
20
259.733773
70
0
0
VERTEX
8
Layer 1
10
709.159169
20
257.910755
70
0
0
VERTEX
8
Layer 1
10
705.513215
20
255.428966
70
0
0
VERTEX
8
Layer 1
10
705.764569
20
257.296922
70
0
0
VERTEX
8
Layer 1
10
705.804634
20
259.085260
70
0
0
VERTEX
8
Layer 1
10
705.451576
20
260.432107
70
0
0
VERTEX
8
Layer 1
10
704.802164
20
261.319881
70
0
0
VERTEX
8
Layer 1
10
703.953168
20
261.731003
70
0
0
VERTEX
8
Layer 1
10
703.001356
20
261.647892
70
0
0
VERTEX
8
Layer 1
10
702.043499
20
261.052967
70
0
0
VERTEX
8
Layer 1
10
701.176364
20
259.928650
70
0
0
VERTEX
8
Layer 1
10
700.496722
20
258.257359
70
0
0
VERTEX
8
Layer 1
10
695.789790
20
243.059711
70
0
0
VERTEX
8
Layer 1
10
693.356789
20
234.963254
70
0
0
VERTEX
8
Layer 1
10
691.746838
20
228.620673
70
0
0
VERTEX
8
Layer 1
10
691.258809
20
226.070866
70
0
0
VERTEX
8
Layer 1
10
690.986508
20
223.916066
70
0
0
VERTEX
8
Layer 1
10
690.933255
20
222.141786
70
0
0
VERTEX
8
Layer 1
10
691.102372
20
220.733536
70
0
0
VERTEX
8
Layer 1
10
691.497180
20
219.676831
70
0
0
VERTEX
8
Layer 1
10
692.121001
20
218.957182
70
0
0
VERTEX
8
Layer 1
10
692.977156
20
218.560102
70
0
0
VERTEX
8
Layer 1
10
694.068967
20
218.471103
70
0
0
VERTEX
8
Layer 1
10
695.399756
20
218.675699
70
0
0
VERTEX
8
Layer 1
10
696.972843
20
219.159402
70
0
0
VERTEX
8
Layer 1
10
700.859200
20
220.906176
70
0
0
VERTEX
8
Layer 1
10
702.026135
20
221.422661
70
0
0
VERTEX
8
Layer 1
10
702.555343
20
221.420046
70
0
0
VERTEX
8
Layer 1
10
702.370920
20
220.805625
70
0
0
VERTEX
8
Layer 1
10
701.396965
20
219.486689
70
0
0
VERTEX
8
Layer 1
10
696.776850
20
214.364444
70
0
0
VERTEX
8
Layer 1
10
688.087779
20
205.311654
70
0
0
VERTEX
8
Layer 1
10
677.792606
20
194.592198
70
0
0
VERTEX
8
Layer 1
10
672.042143
20
188.219262
70
0
0
VERTEX
8
Layer 1
10
670.520036
20
186.238812
70
0
0
VERTEX
8
Layer 1
10
669.712738
20
184.836279
70
0
0
VERTEX
8
Layer 1
10
669.479791
20
183.842093
70
0
0
VERTEX
8
Layer 1
10
669.680740
20
183.086682
70
0
0
VERTEX
8
Layer 1
10
670.275953
20
182.206071
70
0
0
VERTEX
8
Layer 1
10
670.947968
20
181.655578
70
0
0
VERTEX
8
Layer 1
10
671.705125
20
181.437901
70
0
0
VERTEX
8
Layer 1
10
672.555765
20
181.555739
70
0
0
VERTEX
8
Layer 1
10
673.508227
20
182.011788
70
0
0
VERTEX
8
Layer 1
10
674.570854
20
182.808746
70
0
0
VERTEX
8
Layer 1
10
677.059960
20
185.436179
70
0
0
VERTEX
8
Layer 1
10
683.867721
20
193.086184
70
0
0
VERTEX
8
Layer 1
10
692.537073
20
202.160471
70
0
0
VERTEX
8
Layer 1
10
700.427062
20
209.966744
70
0
0
VERTEX
8
Layer 1
10
703.254498
20
212.553033
70
0
0
VERTEX
8
Layer 1
10
704.896737
20
213.812706
70
0
0
VERTEX
8
Layer 1
10
706.774987
20
214.607241
70
0
0
VERTEX
8
Layer 1
10
707.407232
20
214.675769
70
0
0
VERTEX
8
Layer 1
10
707.861720
20
214.503599
70
0
0
VERTEX
8
Layer 1
10
708.158575
20
214.074576
70
0
0
VERTEX
8
Layer 1
10
708.317919
20
213.372548
70
0
0
VERTEX
8
Layer 1
10
708.304566
20
211.084855
70
0
0
VERTEX
8
Layer 1
10
708.190831
20
208.249188
70
0
0
VERTEX
8
Layer 1
10
708.245490
20
205.630694
70
0
0
VERTEX
8
Layer 1
10
708.472974
20
203.224729
70
0
0
VERTEX
8
Layer 1
10
708.877719
20
201.026650
70
0
0
VERTEX
8
Layer 1
10
709.464158
20
199.031814
70
0
0
VERTEX
8
Layer 1
10
710.236725
20
197.235579
70
0
0
VERTEX
8
Layer 1
10
711.199853
20
195.633300
70
0
0
VERTEX
8
Layer 1
10
712.357978
20
194.220335
70
0
0
VERTEX
8
Layer 1
10
713.715531
20
192.992041
70
0
0
VERTEX
8
Layer 1
10
715.276948
20
191.943774
70
0
0
VERTEX
8
Layer 1
10
717.046662
20
191.070892
70
0
0
VERTEX
8
Layer 1
10
719.029107
20
190.368751
70
0
0
VERTEX
8
Layer 1
10
721.228717
20
189.832708
70
0
0
VERTEX
8
Layer 1
10
723.649925
20
189.458120
70
0
0
VERTEX
8
Layer 1
10
726.297166
20
189.240344
70
0
0
VERTEX
8
Layer 1
10
729.174873
20
189.174737
70
0
0
VERTEX
8
Layer 1
10
732.613809
20
189.319883
70
0
0
VERTEX
8
Layer 1
10
736.330293
20
189.719386
70
0
0
VERTEX
8
Layer 1
10
740.255415
20
190.347618
70
0
0
VERTEX
8
Layer 1
10
744.320265
20
191.178953
70
0
0
VERTEX
8
Layer 1
10
752.593507
20
193.348431
70
0
0
VERTEX
8
Layer 1
10
760.598734
20
196.022807
70
0
0
VERTEX
8
Layer 1
10
764.328567
20
197.485266
70
0
0
VERTEX
8
Layer 1
10
767.784664
20
198.997071
70
0
0
VERTEX
8
Layer 1
10
770.898116
20
200.532596
70
0
0
VERTEX
8
Layer 1
10
773.600012
20
202.066213
70
0
0
VERTEX
8
Layer 1
10
775.821442
20
203.572298
70
0
0
VERTEX
8
Layer 1
10
777.493496
20
205.025223
70
0
0
VERTEX
8
Layer 1
10
778.547262
20
206.399362
70
0
0
VERTEX
8
Layer 1
10
778.820753
20
207.048879
70
0
0
VERTEX
8
Layer 1
10
778.913831
20
207.669089
70
0
0
VERTEX
8
Layer 1
10
778.859649
20
208.523217
70
0
0
VERTEX
8
Layer 1
10
778.649538
20
209.102633
70
0
0
VERTEX
8
Layer 1
10
778.212154
20
209.394563
70
0
0
VERTEX
8
Layer 1
10
777.476153
20
209.386233
70
0
0
VERTEX
8
Layer 1
10
776.370191
20
209.064868
70
0
0
VERTEX
8
Layer 1
10
774.822923
20
208.417693
70
0
0
VERTEX
8
Layer 1
10
770.119092
20
206.094820
70
0
0
VERTEX
8
Layer 1
10
765.756102
20
203.966554
70
0
0
VERTEX
8
Layer 1
10
761.388174
20
202.047108
70
0
0
VERTEX
8
Layer 1
10
757.044663
20
200.340231
70
0
0
VERTEX
8
Layer 1
10
752.754923
20
198.849669
70
0
0
VERTEX
8
Layer 1
10
748.548311
20
197.579172
70
0
0
VERTEX
8
Layer 1
10
744.454180
20
196.532486
70
0
0
VERTEX
8
Layer 1
10
740.501884
20
195.713359
70
0
0
VERTEX
8
Layer 1
10
736.720780
20
195.125540
70
0
0
VERTEX
8
Layer 1
10
733.140222
20
194.772775
70
0
0
VERTEX
8
Layer 1
10
729.789563
20
194.658814
70
0
0
VERTEX
8
Layer 1
10
726.698160
20
194.787404
70
0
0
VERTEX
8
Layer 1
10
723.895367
20
195.162292
70
0
0
VERTEX
8
Layer 1
10
721.410539
20
195.787226
70
0
0
VERTEX
8
Layer 1
10
719.273030
20
196.665955
70
0
0
VERTEX
8
Layer 1
10
717.512195
20
197.802226
70
0
0
VERTEX
8
Layer 1
10
716.157389
20
199.199787
70
0
0
VERTEX
8
Layer 1
10
715.053251
20
201.003664
70
0
0
VERTEX
8
Layer 1
10
714.422386
20
203.135459
70
0
0
VERTEX
8
Layer 1
10
714.161607
20
206.193956
70
0
0
VERTEX
8
Layer 1
10
714.167725
20
210.777939
70
0
0
VERTEX
8
Layer 1
10
714.136141
20
215.443860
70
0
0
VERTEX
8
Layer 1
10
713.978342
20
217.027782
70
0
0
VERTEX
8
Layer 1
10
713.694783
20
218.198831
70
0
0
VERTEX
8
Layer 1
10
713.262149
20
219.021870
70
0
0
VERTEX
8
Layer 1
10
712.657122
20
219.561764
70
0
0
VERTEX
8
Layer 1
10
711.856386
20
219.883377
70
0
0
VERTEX
8
Layer 1
10
710.836625
20
220.051573
70
0
0
VERTEX
8
Layer 1
10
710.130225
20
220.161567
70
0
0
VERTEX
8
Layer 1
10
709.695404
20
220.367957
70
0
0
VERTEX
8
Layer 1
10
709.567356
20
220.735391
70
0
0
VERTEX
8
Layer 1
10
709.781270
20
221.328517
70
0
0
VERTEX
8
Layer 1
10
711.375754
20
223.450431
70
0
0
VERTEX
8
Layer 1
10
714.760391
20
227.250877
70
0
0
VERTEX
8
Layer 1
10
717.732857
20
230.565936
70
0
0
VERTEX
8
Layer 1
10
719.381003
20
232.584209
70
0
0
VERTEX
8
Layer 1
10
720.046387
20
233.779958
70
0
0
VERTEX
8
Layer 1
10
720.070572
20
234.627451
70
0
0
VERTEX
8
Layer 1
10
720.057632
20
235.446997
70
0
0
VERTEX
8
Layer 1
10
720.405600
20
236.574120
70
0
0
VERTEX
8
Layer 1
10
722.552361
20
240.644068
70
0
0
VERTEX
8
Layer 1
10
725.914353
20
247.002344
70
0
0
VERTEX
8
Layer 1
10
727.192990
20
249.859826
70
0
0
VERTEX
8
Layer 1
10
728.204598
20
252.492550
70
0
0
VERTEX
8
Layer 1
10
728.950082
20
254.892777
70
0
0
VERTEX
8
Layer 1
10
729.430351
20
257.052767
70
0
0
VERTEX
8
Layer 1
10
729.646310
20
258.964780
70
0
0
VERTEX
8
Layer 1
10
729.598867
20
260.621077
70
0
0
VERTEX
8
Layer 1
10
729.288929
20
262.013917
70
0
0
VERTEX
8
Layer 1
10
728.717403
20
263.135561
70
0
0
VERTEX
8
Layer 1
10
727.885195
20
263.978269
70
0
0
VERTEX
8
Layer 1
10
726.793213
20
264.534301
70
0
0
VERTEX
8
Layer 1
10
725.442363
20
264.795917
70
0
0
VERTEX
8
Layer 1
10
723.833552
20
264.755378
70
0
0
VERTEX
8
Layer 1
10
721.967688
20
264.404943
70
0
0
VERTEX
8
Layer 1
10
719.845676
20
263.736873
70
0
0
SEQEND
8
Layer 1
0
POLYLINE
8
Layer 1
62
7
70
0
10
0.000000
20
0.000000
66
1
0
VERTEX
8
Layer 1
10
723.846171
20
257.699088
70
0
0
VERTEX
8
Layer 1
10
723.692191
20
256.177075
70
0
0
VERTEX
8
Layer 1
10
723.272646
20
254.503257
70
0
0
VERTEX
8
Layer 1
10
722.651130
20
252.798184
70
0
0
VERTEX
8
Layer 1
10
721.891234
20
251.182409
70
0
0
VERTEX
8
Layer 1
10
721.056552
20
249.776481
70
0
0
VERTEX
8
Layer 1
10
720.210677
20
248.700951
70
0
0
VERTEX
8
Layer 1
10
719.417202
20
248.076370
70
0
0
VERTEX
8
Layer 1
10
719.059987
20
247.970857
70
0
0
VERTEX
8
Layer 1
10
718.739719
20
248.023288
70
0
0
VERTEX
8
Layer 1
10
718.168096
20
248.195598
70
0
0
VERTEX
8
Layer 1
10
717.476170
20
248.214119
70
0
0
VERTEX
8
Layer 1
10
715.499239
20
247.704466
70
0
0
VERTEX
8
Layer 1
10
712.344583
20
246.323673
70
0
0
VERTEX
8
Layer 1
10
707.547859
20
243.901085
70
0
0
VERTEX
8
Layer 1
10
703.750018
20
241.981866
70
0
0
VERTEX
8
Layer 1
10
702.617468
20
241.515001
70
0
0
VERTEX
8
Layer 1
10
701.916209
20
241.382255
70
0
0
VERTEX
8
Layer 1
10
701.586525
20
241.587844
70
0
0
VERTEX
8
Layer 1
10
701.568696
20
242.135986
70
0
0
VERTEX
8
Layer 1
10
702.229740
20
244.276793
70
0
0
VERTEX
8
Layer 1
10
702.841811
20
245.527027
70
0
0
VERTEX
8
Layer 1
10
703.801989
20
246.877329
70
0
0
VERTEX
8
Layer 1
10
705.056791
20
248.294502
70
0
0
VERTEX
8
Layer 1
10
706.552737
20
249.745351
70
0
0
VERTEX
8
Layer 1
10
710.054137
20
252.615297
70
0
0
VERTEX
8
Layer 1
10
713.878338
20
255.221599
70
0
0
VERTEX
8
Layer 1
10
717.597491
20
257.298695
70
0
0
VERTEX
8
Layer 1
10
720.783747
20
258.581018
70
0
0
VERTEX
8
Layer 1
10
722.043336
20
258.841151
70
0
0
VERTEX
8
Layer 1
10
723.009257
20
258.803004
70
0
0
VERTEX
8
Layer 1
10
723.628029
20
258.433382
70
0
0
VERTEX
8
Layer 1
10
723.846171
20
257.699088
70
0
0
SEQEND
8
Layer 1
0
POLYLINE
8
Layer 1
62
7
70
0
10
0.000000
20
0.000000
66
1
0
VERTEX
8
Layer 1
10
261.561462
20
255.775570
70
0
0
VERTEX
8
Layer 1
10
253.523431
20
252.687184
70
0
0
VERTEX
8
Layer 1
10
250.186357
20
251.200646
70
0
0
VERTEX
8
Layer 1
10
247.360631
20
249.783096
70
0
0
VERTEX
8
Layer 1
10
245.088793
20
248.457447
70
0
0
VERTEX
8
Layer 1
10
243.413383
20
247.246613
70
0
0
VERTEX
8
Layer 1
10
242.376942
20
246.173507
70
0
0
VERTEX
8
Layer 1
10
242.022008
20
245.261042
70
0
0
VERTEX
8
Layer 1
10
242.154387
20
244.080376
70
0
0
VERTEX
8
Layer 1
10
242.576516
20
243.265052
70
0
0
VERTEX
8
Layer 1
10
243.325880
20
242.818264
70
0
0
VERTEX
8
Layer 1
10
244.439965
20
242.743204
70
0
0
VERTEX
8
Layer 1
10
245.956259
20
243.043066
70
0
0
VERTEX
8
Layer 1
10
247.912245
20
243.721045
70
0
0
VERTEX
8
Layer 1
10
253.293243
20
246.224124
70
0
0
VERTEX
8
Layer 1
10
259.479525
20
249.186130
70
0
0
VERTEX
8
Layer 1
10
264.381917
20
251.235326
70
0
0
VERTEX
8
Layer 1
10
267.382412
20
252.457451
70
0
0
VERTEX
8
Layer 1
10
268.419293
20
253.043492
70
0
0
VERTEX
8
Layer 1
10
269.161278
20
253.626495
70
0
0
VERTEX
8
Layer 1
10
269.618877
20
254.216690
70
0
0
VERTEX
8
Layer 1
10
269.802602
20
254.824311
70
0
0
VERTEX
8
Layer 1
10
269.722964
20
255.459590
70
0
0
VERTEX
8
Layer 1
10
269.390473
20
256.132757
70
0
0
VERTEX
8
Layer 1
10
268.976695
20
256.637005
70
0
0
VERTEX
8
Layer 1
10
268.471915
20
256.987774
70
0
0
VERTEX
8
Layer 1
10
267.840942
20
257.183389
70
0
0
VERTEX
8
Layer 1
10
267.048583
20
257.222178
70
0
0
VERTEX
8
Layer 1
10
264.838943
20
256.822575
70
0
0
VERTEX
8
Layer 1
10
261.561462
20
255.775570
70
0
0
SEQEND
8
Layer 1
0
POLYLINE
8
Layer 1
62
7
70
0
10
0.000000
20
0.000000
66
1
0
VERTEX
8
Layer 1
10
715.252516
20
238.868716
70
0
0
VERTEX
8
Layer 1
10
712.929932
20
234.841143
70
0
0
VERTEX
8
Layer 1
10
711.932955
20
233.450031
70
0
0
VERTEX
8
Layer 1
10
710.872013
20
232.314003
70
0
0
VERTEX
8
Layer 1
10
709.616975
20
231.313037
70
0
0
VERTEX
8
Layer 1
10
708.037709
20
230.327109
70
0
0
VERTEX
8
Layer 1
10
703.385968
20
227.920272
70
0
0
VERTEX
8
Layer 1
10
700.241895
20
226.416365
70
0
0
VERTEX
8
Layer 1
10
698.198157
20
225.596572
70
0
0
VERTEX
8
Layer 1
10
697.092035
20
225.408800
70
0
0
VERTEX
8
Layer 1
10
696.839730
20
225.535645
70
0
0
VERTEX
8
Layer 1
10
696.760810
20
225.800962
70
0
0
VERTEX
8
Layer 1
10
697.258226
20
228.292011
70
0
0
VERTEX
8
Layer 1
10
698.366828
20
231.846684
70
0
0
VERTEX
8
Layer 1
10
699.054744
20
233.738452
70
0
0
VERTEX
8
Layer 1
10
699.877597
20
232.735682
70
0
0
VERTEX
8
Layer 1
10
700.658117
20
232.055704
70
0
0
VERTEX
8
Layer 1
10
700.995295
20
232.022052
70
0
0
VERTEX
8
Layer 1
10
701.335450
20
232.177412
70
0
0
VERTEX
8
Layer 1
10
707.045151
20
236.328720
70
0
0
VERTEX
8
Layer 1
10
712.603006
20
240.246491
70
0
0
VERTEX
8
Layer 1
10
714.399158
20
241.351895
70
0
0
VERTEX
8
Layer 1
10
715.596804
20
241.905798
70
0
0
VERTEX
8
Layer 1
10
716.238454
20
241.921317
70
0
0
VERTEX
8
Layer 1
10
716.364065
20
241.731280
70
0
0
VERTEX
8
Layer 1
10
716.366617
20
241.411566
70
0
0
VERTEX
8
Layer 1
10
716.023801
20
240.389660
70
0
0
VERTEX
8
Layer 1
10
715.252516
20
238.868716
70
0
0
SEQEND
8
Layer 1
0
POLYLINE
8
Layer 1
62
7
70
0
10
0.000000
20
0.000000
66
1
0
VERTEX
8
Layer 1
10
139.451116
20
241.514546
70
0
0
VERTEX
8
Layer 1
10
138.824716
20
239.631708
70
0
0
VERTEX
8
Layer 1
10
138.083222
20
236.024449
70
0
0
VERTEX
8
Layer 1
10
137.379328
20
231.741439
70
0
0
VERTEX
8
Layer 1
10
136.784946
20
228.589088
70
0
0
VERTEX
8
Layer 1
10
136.048930
20
226.312961
70
0
0
VERTEX
8
Layer 1
10
135.549325
20
225.423971
70
0
0
VERTEX
8
Layer 1
10
134.920132
20
224.658625
70
0
0
VERTEX
8
Layer 1
10
134.129957
20
223.985118
70
0
0
VERTEX
8
Layer 1
10
133.147405
20
223.371646
70
0
0
VERTEX
8
Layer 1
10
130.479603
20
222.197590
70
0
0
VERTEX
8
Layer 1
10
121.454180
20
219.170512
70
0
0
VERTEX
8
Layer 1
10
101.967436
20
212.419026
70
0
0
VERTEX
8
Layer 1
10
83.526207
20
205.529687
70
0
0
VERTEX
8
Layer 1
10
66.639735
20
198.735227
70
0
0
VERTEX
8
Layer 1
10
51.817258
20
192.268374
70
0
0
VERTEX
8
Layer 1
10
45.339155
20
189.230528
70
0
0
VERTEX
8
Layer 1
10
39.568016
20
186.361858
70
0
0
VERTEX
8
Layer 1
10
34.567495
20
183.691455
70
0
0
VERTEX
8
Layer 1
10
30.401248
20
181.248409
70
0
0
VERTEX
8
Layer 1
10
27.132930
20
179.061813
70
0
0
VERTEX
8
Layer 1
10
24.826195
20
177.160757
70
0
0
VERTEX
8
Layer 1
10
24.053314
20
176.326398
70
0
0
VERTEX
8
Layer 1
10
23.544699
20
175.574333
70
0
0
VERTEX
8
Layer 1
10
23.308307
20
174.908198
70
0
0
VERTEX
8
Layer 1
10
23.352096
20
174.331631
70
0
0
VERTEX
8
Layer 1
10
23.695857
20
173.570815
70
0
0
VERTEX
8
Layer 1
10
24.128729
20
173.030916
70
0
0
VERTEX
8
Layer 1
10
24.672851
20
172.712337
70
0
0
VERTEX
8
Layer 1
10
25.350359
20
172.615479
70
0
0
VERTEX
8
Layer 1
10
26.183392
20
172.740748
70
0
0
VERTEX
8
Layer 1
10
27.194089
20
173.088546
70
0
0
VERTEX
8
Layer 1
10
29.837025
20
174.453339
70
0
0
VERTEX
8
Layer 1
10
36.857156
20
178.434135
70
0
0
VERTEX
8
Layer 1
10
44.043974
20
182.266971
70
0
0
VERTEX
8
Layer 1
10
51.497443
20
185.997364
70
0
0
VERTEX
8
Layer 1
10
59.317524
20
189.670830
70
0
0
VERTEX
8
Layer 1
10
67.604181
20
193.332886
70
0
0
VERTEX
8
Layer 1
10
76.457376
20
197.029049
70
0
0
VERTEX
8
Layer 1
10
85.977073
20
200.804834
70
0
0
VERTEX
8
Layer 1
10
96.263233
20
204.705759
70
0
0
VERTEX
8
Layer 1
10
107.820260
20
208.864673
70
0
0
VERTEX
8
Layer 1
10
119.879581
20
213.007712
70
0
0
VERTEX
8
Layer 1
10
129.432143
20
216.123839
70
0
0
VERTEX
8
Layer 1
10
132.328061
20
216.980860
70
0
0
VERTEX
8
Layer 1
10
133.468894
20
217.202014
70
0
0
VERTEX
8
Layer 1
10
133.497323
20
216.648030
70
0
0
VERTEX
8
Layer 1
10
133.289655
20
215.366196
70
0
0
VERTEX
8
Layer 1
10
132.283521
20
211.024456
70
0
0
VERTEX
8
Layer 1
10
128.730544
20
198.067041
70
0
0
VERTEX
8
Layer 1
10
124.689906
20
184.817427
70
0
0
VERTEX
8
Layer 1
10
123.074198
20
180.110439
70
0
0
VERTEX
8
Layer 1
10
122.041555
20
177.763272
70
0
0
VERTEX
8
Layer 1
10
121.451622
20
176.664183
70
0
0
VERTEX
8
Layer 1
10
121.219404
20
175.530399
70
0
0
VERTEX
8
Layer 1
10
121.305740
20
174.434131
70
0
0
VERTEX
8
Layer 1
10
121.671469
20
173.447593
70
0
0
VERTEX
8
Layer 1
10
122.277431
20
172.642997
70
0
0
VERTEX
8
Layer 1
10
123.084466
20
172.092556
70
0
0
VERTEX
8
Layer 1
10
124.053414
20
171.868482
70
0
0
VERTEX
8
Layer 1
10
125.145113
20
172.042988
70
0
0
VERTEX
8
Layer 1
10
125.632382
20
172.310720
70
0
0
VERTEX
8
Layer 1
10
126.138266
20
172.789954
70
0
0
VERTEX
8
Layer 1
10
127.227009
20
174.445360
70
0
0
VERTEX
8
Layer 1
10
128.453605
20
177.134066
70
0
0
VERTEX
8
Layer 1
10
129.860313
20
180.980932
70
0
0
VERTEX
8
Layer 1
10
131.489395
20
186.110820
70
0
0
VERTEX
8
Layer 1
10
133.383112
20
192.648588
70
0
0
VERTEX
8
Layer 1
10
138.133493
20
210.447210
70
0
0
VERTEX
8
Layer 1
10
140.575594
20
219.464199
70
0
0
VERTEX
8
Layer 1
10
141.555144
20
220.046317
70
0
0
VERTEX
8
Layer 1
10
143.491004
20
220.801909
70
0
0
VERTEX
8
Layer 1
10
149.727478
20
222.717040
70
0
0
VERTEX
8
Layer 1
10
158.276677
20
224.976646
70
0
0
VERTEX
8
Layer 1
10
168.130260
20
227.347780
70
0
0
VERTEX
8
Layer 1
10
178.279886
20
229.597495
70
0
0
VERTEX
8
Layer 1
10
187.717215
20
231.492845
70
0
0
VERTEX
8
Layer 1
10
195.433907
20
232.800882
70
0
0
VERTEX
8
Layer 1
10
198.331908
20
233.161863
70
0
0
VERTEX
8
Layer 1
10
200.421623
20
233.288661
70
0
0
VERTEX
8
Layer 1
10
202.061799
20
233.447793
70
0
0
VERTEX
8
Layer 1
10
203.383050
20
233.879590
70
0
0
VERTEX
8
Layer 1
10
204.353192
20
234.515654
70
0
0
VERTEX
8
Layer 1
10
204.940039
20
235.287585
70
0
0
VERTEX
8
Layer 1
10
205.111408
20
236.126985
70
0
0
VERTEX
8
Layer 1
10
204.835115
20
236.965455
70
0
0
VERTEX
8
Layer 1
10
204.078976
20
237.734596
70
0
0
VERTEX
8
Layer 1
10
202.810807
20
238.366009
70
0
0
VERTEX
8
Layer 1
10
201.845859
20
238.573733
70
0
0
VERTEX
8
Layer 1
10
200.504470
20
238.656228
70
0
0
VERTEX
8
Layer 1
10
196.755990
20
238.457827
70
0
0
VERTEX
8
Layer 1
10
191.692616
20
237.795393
70
0
0
VERTEX
8
Layer 1
10
185.441594
20
236.693513
70
0
0
VERTEX
8
Layer 1
10
178.130174
20
235.176776
70
0
0
VERTEX
8
Layer 1
10
169.885602
20
233.269768
70
0
0
VERTEX
8
Layer 1
10
160.835127
20
230.997078
70
0
0
VERTEX
8
Layer 1
10
151.105997
20
228.383292
70
0
0
VERTEX
8
Layer 1
10
145.425317
20
226.807452
70
0
0
VERTEX
8
Layer 1
10
143.823567
20
226.496805
70
0
0
VERTEX
8
Layer 1
10
142.883419
20
226.579497
70
0
0
VERTEX
8
Layer 1
10
142.622979
20
226.785961
70
0
0
VERTEX
8
Layer 1
10
142.481780
20
227.111898
70
0
0
VERTEX
8
Layer 1
10
142.495557
20
228.150376
70
0
0
VERTEX
8
Layer 1
10
143.276986
20
231.971038
70
0
0
VERTEX
8
Layer 1
10
143.919220
20
235.628112
70
0
0
VERTEX
8
Layer 1
10
144.156394
20
238.361709
70
0
0
VERTEX
8
Layer 1
10
143.990244
20
240.287171
70
0
0
VERTEX
8
Layer 1
10
143.756465
20
240.982895
70
0
0
VERTEX
8
Layer 1
10
143.422507
20
241.519838
70
0
0
VERTEX
8
Layer 1
10
142.605524
20
241.992656
70
0
0
VERTEX
8
Layer 1
10
141.436811
20
242.149215
70
0
0
VERTEX
8
Layer 1
10
140.268099
20
241.989762
70
0
0
VERTEX
8
Layer 1
10
139.451116
20
241.514546
70
0
0
SEQEND
8
Layer 1
0
POLYLINE
8
Layer 1
62
7
70
0
10
0.000000
20
0.000000
66
1
0
VERTEX
8
Layer 1
10
282.529665
20
238.728487
70
0
0
VERTEX
8
Layer 1
10
278.556682
20
235.623125
70
0
0
VERTEX
8
Layer 1
10
273.495644
20
231.029577
70
0
0
VERTEX
8
Layer 1
10
267.733377
20
225.361181
70
0
0
VERTEX
8
Layer 1
10
261.656712
20
219.031275
70
0
0
VERTEX
8
Layer 1
10
255.652476
20
212.453199
70
0
0
VERTEX
8
Layer 1
10
250.107499
20
206.040291
70
0
0
VERTEX
8
Layer 1
10
245.408608
20
200.205890
70
0
0
VERTEX
8
Layer 1
10
241.942633
20
195.363334
70
0
0
VERTEX
8
Layer 1
10
241.136368
20
193.949184
70
0
0
VERTEX
8
Layer 1
10
240.603264
20
192.636020
70
0
0
VERTEX
8
Layer 1
10
240.341151
20
191.439253
70
0
0
VERTEX
8
Layer 1
10
240.347859
20
190.374290
70
0
0
VERTEX
8
Layer 1
10
240.621216
20
189.456544
70
0
0
VERTEX
8
Layer 1
10
241.159054
20
188.701423
70
0
0
VERTEX
8
Layer 1
10
241.959200
20
188.124338
70
0
0
VERTEX
8
Layer 1
10
243.019486
20
187.740697
70
0
0
VERTEX
8
Layer 1
10
243.642387
20
187.734331
70
0
0
VERTEX
8
Layer 1
10
244.338060
20
187.956167
70
0
0
VERTEX
8
Layer 1
10
245.755604
20
188.910816
70
0
0
VERTEX
8
Layer 1
10
246.887896
20
190.257378
70
0
0
VERTEX
8
Layer 1
10
247.227001
20
190.969106
70
0
0
VERTEX
8
Layer 1
10
247.350709
20
191.648588
70
0
0
VERTEX
8
Layer 1
10
247.510329
20
192.358113
70
0
0
VERTEX
8
Layer 1
10
247.977662
20
193.367572
70
0
0
VERTEX
8
Layer 1
10
249.766311
20
196.203385
70
0
0
VERTEX
8
Layer 1
10
252.578337
20
199.990208
70
0
0
VERTEX
8
Layer 1
10
256.275425
20
204.562223
70
0
0
VERTEX
8
Layer 1
10
260.719256
20
209.753610
70
0
0
VERTEX
8
Layer 1
10
265.771515
20
215.398551
70
0
0
VERTEX
8
Layer 1
10
271.293884
20
221.331225
70
0
0
VERTEX
8
Layer 1
10
277.148047
20
227.385814
70
0
0
VERTEX
8
Layer 1
10
282.632191
20
233.034330
70
0
0
VERTEX
8
Layer 1
10
285.483073
20
236.331365
70
0
0
VERTEX
8
Layer 1
10
286.112346
20
237.362247
70
0
0
VERTEX
8
Layer 1
10
286.312871
20
238.122262
70
0
0
VERTEX
8
Layer 1
10
286.161170
20
238.717077
70
0
0
VERTEX
8
Layer 1
10
285.733765
20
239.252362
70
0
0
VERTEX
8
Layer 1
10
285.138619
20
239.760981
70
0
0
VERTEX
8
Layer 1
10
284.576214
20
239.870494
70
0
0
VERTEX
8
Layer 1
10
283.791560
20
239.539972
70
0
0
VERTEX
8
Layer 1
10
282.529665
20
238.728487
70
0
0
SEQEND
8
Layer 1
0
POLYLINE
8
Layer 1
62
7
70
0
10
0.000000
20
0.000000
66
1
0
VERTEX
8
Layer 1
10
522.014322
20
231.066164
70
0
0
VERTEX
8
Layer 1
10
521.123586
20
230.217762
70
0
0
VERTEX
8
Layer 1
10
520.500245
20
229.809394
70
0
0
VERTEX
8
Layer 1
10
520.133881
20
229.837589
70
0
0
VERTEX
8
Layer 1
10
520.014074
20
230.298873
70
0
0
VERTEX
8
Layer 1
10
520.348978
20
230.857598
70
0
0
VERTEX
8
Layer 1
10
521.145497
20
231.544067
70
0
0
VERTEX
8
Layer 1
10
522.091340
20
232.129829
70
0
0
VERTEX
8
Layer 1
10
522.874216
20
232.386433
70
0
0
VERTEX
8
Layer 1
10
522.934450
20
232.286553
70
0
0
VERTEX
8
Layer 1
10
522.792526
20
232.004110
70
0
0
VERTEX
8
Layer 1
10
522.014322
20
231.066164
70
0
0
SEQEND
8
Layer 1
0
POLYLINE
8
Layer 1
62
7
70
0
10
0.000000
20
0.000000
66
1
0
VERTEX
8
Layer 1
10
151.632517
20
202.443575
70
0
0
VERTEX
8
Layer 1
10
151.004680
20
201.680392
70
0
0
VERTEX
8
Layer 1
10
150.678778
20
200.951781
70
0
0
VERTEX
8
Layer 1
10
150.651648
20
200.262548
70
0
0
VERTEX
8
Layer 1
10
150.920128
20
199.617498
70
0
0
VERTEX
8
Layer 1
10
151.481054
20
199.021436
70
0
0
VERTEX
8
Layer 1
10
152.331264
20
198.479171
70
0
0
VERTEX
8
Layer 1
10
153.467597
20
197.995506
70
0
0
VERTEX
8
Layer 1
10
154.886888
20
197.575248
70
0
0
VERTEX
8
Layer 1
10
157.807466
20
196.676420
70
0
0
VERTEX
8
Layer 1
10
161.673070
20
195.228479
70
0
0
VERTEX
8
Layer 1
10
171.235141
20
191.139928
70
0
0
VERTEX
8
Layer 1
10
181.564668
20
186.218932
70
0
0
VERTEX
8
Layer 1
10
186.389592
20
183.730436
70
0
0
VERTEX
8
Layer 1
10
190.653218
20
181.374830
70
0
0
VERTEX
8
Layer 1
10
193.759423
20
179.685385
70
0
0
VERTEX
8
Layer 1
10
195.845660
20
178.858646
70
0
0
VERTEX
8
Layer 1
10
196.604269
20
178.744142
70
0
0
VERTEX
8
Layer 1
10
197.225460
20
178.815734
70
0
0
VERTEX
8
Layer 1
10
197.748425
20
179.063564
70
0
0
VERTEX
8
Layer 1
10
198.212354
20
179.477770
70
0
0
VERTEX
8
Layer 1
10
198.927442
20
180.568033
70
0
0
VERTEX
8
Layer 1
10
199.049779
20
181.116883
70
0
0
VERTEX
8
Layer 1
10
198.996926
20
181.682201
70
0
0
VERTEX
8
Layer 1
10
198.755092
20
182.274479
70
0
0
VERTEX
8
Layer 1
10
198.310488
20
182.904208
70
0
0
VERTEX
8
Layer 1
10
196.757809
20
184.317986
70
0
0
VERTEX
8
Layer 1
10
194.228572
20
186.007467
70
0
0
VERTEX
8
Layer 1
10
190.612456
20
188.056585
70
0
0
VERTEX
8
Layer 1
10
179.678315
20
193.569461
70
0
0
VERTEX
8
Layer 1
10
168.099212
20
198.934956
70
0
0
VERTEX
8
Layer 1
10
163.576760
20
200.791430
70
0
0
VERTEX
8
Layer 1
10
159.832275
20
202.118138
70
0
0
VERTEX
8
Layer 1
10
156.815683
20
202.930893
70
0
0
VERTEX
8
Layer 1
10
154.476909
20
203.245509
70
0
0
VERTEX
8
Layer 1
10
152.765878
20
203.077799
70
0
0
VERTEX
8
Layer 1
10
152.130119
20
202.818013
70
0
0
VERTEX
8
Layer 1
10
151.632517
20
202.443575
70
0
0
SEQEND
8
Layer 1
0
POLYLINE
8
Layer 1
62
7
70
0
10
0.000000
20
0.000000
66
1
0
VERTEX
8
Layer 1
10
107.066157
20
196.723290
70
0
0
VERTEX
8
Layer 1
10
102.216433
20
192.166468
70
0
0
VERTEX
8
Layer 1
10
97.367205
20
187.911023
70
0
0
VERTEX
8
Layer 1
10
92.977360
20
184.345643
70
0
0
VERTEX
8
Layer 1
10
89.505783
20
181.859017
70
0
0
VERTEX
8
Layer 1
10
87.052024
20
180.114258
70
0
0
VERTEX
8
Layer 1
10
86.232964
20
179.352941
70
0
0
VERTEX
8
Layer 1
10
85.677267
20
178.652271
70
0
0
VERTEX
8
Layer 1
10
85.378547
20
178.002203
70
0
0
VERTEX
8
Layer 1
10
85.330415
20
177.392691
70
0
0
VERTEX
8
Layer 1
10
85.526486
20
176.813688
70
0
0
VERTEX
8
Layer 1
10
85.960371
20
176.255149
70
0
0
VERTEX
8
Layer 1
10
86.469857
20
175.904363
70
0
0
VERTEX
8
Layer 1
10
87.117746
20
175.730143
70
0
0
VERTEX
8
Layer 1
10
87.901796
20
175.731083
70
0
0
VERTEX
8
Layer 1
10
88.819769
20
175.905776
70
0
0
VERTEX
8
Layer 1
10
91.048519
20
176.770792
70
0
0
VERTEX
8
Layer 1
10
93.786075
20
178.313936
70
0
0
VERTEX
8
Layer 1
10
97.014514
20
180.523953
70
0
0
VERTEX
8
Layer 1
10
100.715917
20
183.389589
70
0
0
VERTEX
8
Layer 1
10
104.872361
20
186.899587
70
0
0
VERTEX
8
Layer 1
10
109.465925
20
191.042693
70
0
0
VERTEX
8
Layer 1
10
113.946018
20
195.412530
70
0
0
VERTEX
8
Layer 1
10
115.420112
20
197.079247
70
0
0
VERTEX
8
Layer 1
10
116.424127
20
198.466231
70
0
0
VERTEX
8
Layer 1
10
116.988479
20
199.622779
70
0
0
VERTEX
8
Layer 1
10
117.143586
20
200.598191
70
0
0
VERTEX
8
Layer 1
10
116.919863
20
201.441766
70
0
0
VERTEX
8
Layer 1
10
116.347728
20
202.202804
70
0
0
VERTEX
8
Layer 1
10
115.755745
20
202.712023
70
0
0
VERTEX
8
Layer 1
10
115.160908
20
202.974064
70
0
0
VERTEX
8
Layer 1
10
114.483472
20
202.941921
70
0
0
VERTEX
8
Layer 1
10
113.643690
20
202.568590
70
0
0
VERTEX
8
Layer 1
10
111.158098
20
200.610345
70
0
0
VERTEX
8
Layer 1
10
107.066157
20
196.723290
70
0
0
SEQEND
8
Layer 1
 0 
ENDSEC
 0 
EOF