<?xml version="1.0" encoding="utf-8"?>
<svg xmlns="http://www.w3.org/2000/svg" viewBox="0 0 36 31.1">
  <g fill="#47422C">
    <path d="M16.8,4.5C17.3,5.6,18,6.7,19,7.8c1.2,1.3,2.5,2.4,3.8,3c0.7,0.3,1.4,0.5,1.9,0.5c0.5,0,1-0.1,1.3-0.4
      c0.7-0.6,0.8-1.7,0.3-3.2c-0.4-1.3-1.4-2.8-2.5-4.1c-1.2-1.3-2.5-2.4-3.8-3c-1.4-0.7-2.5-0.7-3.2-0.1c-0.6,0.6-0.8,1.6-0.4,2.9
      L3.2,16.4c-2.5,2.5-2.9,5.1-1.2,8.1c0,0,0,0,0,0L4.2,28c0.1,0.1,0.3,0.2,0.4,0.2c0.1,0,0.2,0,0.3-0.1C5.1,28,5.2,27.7,5,27.4
      L2.9,24c-1.5-2.6-1.1-4.7,1.1-6.9L16.8,4.5z M17.3,1.2C17.5,1,17.7,1,18,1c0.4,0,0.9,0.1,1.5,0.4c1.2,0.5,2.4,1.5,3.5,2.8
      c1.1,1.3,2,2.6,2.4,3.8c0.4,1.1,0.3,1.9-0.1,2.2c-0.4,0.4-1.2,0.3-2.2-0.2c-1.2-0.5-2.4-1.5-3.5-2.8c-1.1-1.3-2-2.6-2.4-3.8
      C16.9,2.4,16.9,1.5,17.3,1.2z"/>
    <path d="M29.6,6.6c-1.4-0.8-2.2-0.6-2.5-0.3c-0.4,0.3-0.7,1-0.1,2.6c0.4,1.1,1.1,2.3,2.1,3.4c0.1,0.2,0.3,0.4,0.5,0.5
      L20,22.1c-1.8,1.8-2.1,3.8-0.9,6c0,0,0,0,0,0l1.6,2.5c0.1,0.1,0.3,0.2,0.4,0.2c0.1,0,0.2,0,0.3-0.1c0.2-0.1,0.3-0.4,0.2-0.7
      L20,27.6c-1-1.8-0.8-3.3,0.7-4.8l9.5-9.3c1.2,1.2,2.6,2.1,3.6,2.1c0.3,0,0.6-0.1,0.8-0.3c1.2-1-0.1-3.7-2-6
      C31.6,8.1,30.6,7.2,29.6,6.6z M34,14.6c-0.4,0.4-2.4-0.6-4.3-2.9c-0.9-1.1-1.6-2.2-2-3.2c-0.3-0.9-0.3-1.4-0.1-1.6
      c0.1,0,0.1-0.1,0.3-0.1c0.3,0,0.7,0.1,1.3,0.5C30,7.9,31,8.8,31.9,9.8C33.8,12.1,34.4,14.2,34,14.6z"/>
  </g>
</svg>
